<svg preserveAspectRatio="none" width="100%" height="100%" overflow="visible" style="display: block;" viewBox="0 0 16.6667 18.3333" fill="none" xmlns="http://www.w3.org/2000/svg">
<path id="Icon" d="M15.8333 7.5H0.833334M11.6667 0.833333V4.16667M5 0.833333V4.16667M4.83333 17.5H11.8333C13.2335 17.5 13.9335 17.5 14.4683 17.2275C14.9387 16.9878 15.3212 16.6054 15.5608 16.135C15.8333 15.6002 15.8333 14.9001 15.8333 13.5V6.5C15.8333 5.09987 15.8333 4.3998 15.5608 3.86502C15.3212 3.39462 14.9387 3.01217 14.4683 2.77248C13.9335 2.5 13.2335 2.5 11.8333 2.5H4.83333C3.4332 2.5 2.73314 2.5 2.19836 2.77248C1.72795 3.01217 1.3455 3.39462 1.10582 3.86502C0.833334 4.3998 0.833334 5.09987 0.833334 6.5V13.5C0.833334 14.9001 0.833334 15.6002 1.10582 16.135C1.3455 16.6054 1.72795 16.9878 2.19836 17.2275C2.73314 17.5 3.4332 17.5 4.83333 17.5Z" stroke="var(--stroke-0, #A4A7AE)" style="stroke:#A4A7AE;stroke:color(display-p3 0.6425 0.6560 0.6830);stroke-opacity:1;" stroke-width="1.66667" stroke-linecap="round" stroke-linejoin="round"/>
</svg>
