<svg preserveAspectRatio="none" width="100%" height="100%" overflow="visible" style="display: block;" viewBox="0 0 15 15" fill="none" xmlns="http://www.w3.org/2000/svg">
<g id="CaretLeft">
<path id="Vector" d="M9.87233 11.6895C10.0044 11.8215 10.0786 12.0007 10.0786 12.1875C10.0786 12.3743 10.0044 12.5535 9.87233 12.6855C9.74024 12.8176 9.56109 12.8918 9.37429 12.8918C9.18748 12.8918 9.00833 12.8176 8.87624 12.6855L4.18874 7.99805C4.12319 7.93272 4.07118 7.8551 4.03569 7.76964C4.0002 7.68417 3.98193 7.59254 3.98193 7.5C3.98193 7.40746 4.0002 7.31583 4.03569 7.23036C4.07118 7.1449 4.12319 7.06727 4.18874 7.00195L8.87624 2.31445C9.00833 2.18236 9.18748 2.10815 9.37429 2.10815C9.56109 2.10815 9.74024 2.18236 9.87233 2.31445C10.0044 2.44654 10.0786 2.6257 10.0786 2.8125C10.0786 2.9993 10.0044 3.17846 9.87233 3.31055L5.68346 7.49941L9.87233 11.6895Z" fill="var(--fill-0, #52525B)" style="fill:#52525B;fill:color(display-p3 0.3216 0.3216 0.3569);fill-opacity:1;"/>
</g>
</svg>
