<svg preserveAspectRatio="none" width="100%" height="100%" overflow="visible" style="display: block;" viewBox="0 0 32 32" fill="none" xmlns="http://www.w3.org/2000/svg">
<g id="FingerprintSimple">
<path id="Vector" d="M23.0002 16C23.0071 20.0406 22.2197 24.0431 20.6827 27.78C20.6081 27.9644 20.4803 28.1223 20.3155 28.2336C20.1507 28.3449 19.9565 28.4046 19.7577 28.405C19.6291 28.4038 19.5018 28.3783 19.3827 28.33C19.261 28.2801 19.1505 28.2067 19.0572 28.114C18.964 28.0214 18.8899 27.9112 18.8393 27.7899C18.7887 27.6686 18.7625 27.5384 18.7622 27.407C18.7619 27.2755 18.7876 27.1453 18.8377 27.0238C20.2743 23.5265 21.0091 19.7808 21.0002 16C21.0002 15.7348 21.1055 15.4804 21.2931 15.2929C21.4806 15.1054 21.735 15 22.0002 15C22.2654 15 22.5197 15.1054 22.7073 15.2929C22.8948 15.4804 23.0002 15.7348 23.0002 16ZM16.0002 11C16.7035 11.0005 17.3988 11.1491 18.0408 11.4362C18.6828 11.7233 19.2572 12.1424 19.7264 12.6663C19.8133 12.7665 19.9193 12.8484 20.0382 12.9073C20.157 12.9662 20.2864 13.0008 20.4188 13.0092C20.5512 13.0176 20.684 12.9996 20.8093 12.9562C20.9347 12.9127 21.0501 12.8448 21.149 12.7563C21.2478 12.6678 21.3281 12.5606 21.3851 12.4408C21.442 12.321 21.4746 12.1911 21.4809 12.0585C21.4872 11.926 21.467 11.7936 21.4216 11.6689C21.3762 11.5443 21.3065 11.4299 21.2164 11.3325C20.2712 10.2762 19.0275 9.53183 17.65 9.19776C16.2724 8.86368 14.8259 8.95568 13.5018 9.46159C12.1777 9.9675 11.0384 10.8635 10.2345 12.031C9.43072 13.1985 9.00028 14.5825 9.00017 16C9.00004 18.8794 8.26886 21.7116 6.87517 24.2313C6.81148 24.3462 6.77104 24.4725 6.75617 24.603C6.7413 24.7336 6.75229 24.8657 6.78851 24.992C6.82472 25.1183 6.88545 25.2362 6.96724 25.3391C7.04903 25.4419 7.15026 25.5276 7.26517 25.5913C7.38008 25.655 7.5064 25.6954 7.63694 25.7103C7.76747 25.7251 7.89965 25.7141 8.02594 25.6779C8.15223 25.6417 8.27015 25.581 8.37296 25.4992C8.47578 25.4174 8.56148 25.3162 8.62517 25.2013C10.1827 22.3846 10.9999 19.2187 11.0002 16C11.0002 14.6739 11.527 13.4022 12.4646 12.4645C13.4023 11.5268 14.6741 11 16.0002 11ZM16.0002 3.00001C14.524 2.99823 13.0584 3.2485 11.6664 3.74001C11.4208 3.83183 11.2211 4.01643 11.1103 4.25406C10.9995 4.49169 10.9865 4.76333 11.074 5.01048C11.1615 5.25764 11.3426 5.46053 11.5782 5.57547C11.8139 5.69041 12.0853 5.7082 12.3339 5.62501C13.9934 5.03988 15.7689 4.86114 17.5117 5.1038C19.2545 5.34645 20.9137 6.00341 22.3502 7.01959C23.7867 8.03578 24.9586 9.38157 25.7677 10.9441C26.5767 12.5067 26.9994 14.2404 27.0002 16C27.0014 18.6171 26.7104 21.2262 26.1327 23.7788C26.0739 24.0368 26.1199 24.3076 26.2605 24.5319C26.4011 24.7561 26.6248 24.9154 26.8827 24.975C26.9556 24.9919 27.0303 25.0003 27.1052 25C27.3319 25 27.5519 24.9229 27.729 24.7814C27.9062 24.6399 28.03 24.4424 28.0802 24.2213C28.691 21.5235 28.9996 18.7661 29.0002 16C28.9965 12.5533 27.6257 9.24883 25.1885 6.81164C22.7514 4.37446 19.4469 3.00365 16.0002 3.00001ZM8.66767 7.80251C8.76559 7.71493 8.8453 7.60893 8.90225 7.49055C8.9592 7.37217 8.99227 7.24373 8.99958 7.11257C9.0069 6.98141 8.9883 6.85009 8.94486 6.72611C8.90143 6.60213 8.834 6.48793 8.74642 6.39001C8.65885 6.29209 8.55284 6.21238 8.43446 6.15543C8.31608 6.09848 8.18764 6.06541 8.05648 6.0581C7.92532 6.05078 7.794 6.06938 7.67002 6.11281C7.54604 6.15625 7.43184 6.22368 7.33392 6.31126C5.97164 7.5313 4.88165 9.02463 4.13496 10.694C3.38826 12.3633 3.0016 14.1713 3.00017 16C3.00297 17.5819 2.66175 19.1456 2.00017 20.5825C1.94534 20.7018 1.91456 20.8308 1.90957 20.9621C1.90459 21.0933 1.9255 21.2242 1.97112 21.3474C2.06325 21.5961 2.25041 21.798 2.49142 21.9088C2.73244 22.0195 3.00757 22.0299 3.25629 21.9378C3.50501 21.8457 3.70694 21.6585 3.81767 21.4175C4.6 19.7188 5.00349 17.8702 5.00017 16C5.0015 14.4527 5.32877 12.923 5.96067 11.5106C6.59258 10.0982 7.51494 8.8347 8.66767 7.80251ZM14.2402 25.0925C14.1208 25.0377 13.9919 25.0069 13.8606 25.0019C13.7294 24.9969 13.5985 25.0178 13.4753 25.0634C13.3521 25.1091 13.2392 25.1785 13.1429 25.2678C13.0465 25.357 12.9687 25.4644 12.9139 25.5838C12.6739 26.1088 12.4139 26.6325 12.1277 27.1388C12.0637 27.2537 12.0231 27.3801 12.0081 27.5108C11.9931 27.6415 12.004 27.7739 12.0402 27.9003C12.0765 28.0268 12.1373 28.1448 12.2192 28.2477C12.3011 28.3506 12.4026 28.4364 12.5177 28.5C12.6655 28.5826 12.8321 28.6256 13.0014 28.625C13.18 28.6251 13.3553 28.5774 13.5091 28.4868C13.663 28.3963 13.7898 28.2661 13.8764 28.11C14.1814 27.5588 14.4689 26.985 14.7314 26.42C14.7864 26.3006 14.8174 26.1715 14.8225 26.0402C14.8276 25.9088 14.8067 25.7777 14.7611 25.6544C14.7154 25.5311 14.646 25.418 14.5566 25.3216C14.4672 25.2252 14.3597 25.1473 14.2402 25.0925ZM16.0002 15C15.735 15 15.4806 15.1054 15.2931 15.2929C15.1055 15.4804 15.0002 15.7348 15.0002 16C15.0009 17.9394 14.7577 19.8713 14.2764 21.75C14.2104 22.0068 14.249 22.2793 14.3837 22.5076C14.5185 22.7359 14.7384 22.9013 14.9952 22.9675C15.0769 22.9883 15.1609 22.9988 15.2452 22.9988C15.4667 22.9986 15.682 22.9248 15.8571 22.7891C16.0322 22.6534 16.1573 22.4633 16.2127 22.2488C16.7368 20.2068 17.0013 18.1069 17.0002 15.9988C16.9998 15.7338 16.8943 15.4797 16.7068 15.2925C16.5193 15.1052 16.2652 15 16.0002 15Z" fill="var(--fill-0, #10B981)" style="fill:#10B981;fill:color(display-p3 0.0627 0.7255 0.5059);fill-opacity:1;"/>
</g>
</svg>
