<svg preserveAspectRatio="none" width="100%" height="100%" overflow="visible" style="display: block;" viewBox="0 0 220.623 220.623" fill="none" xmlns="http://www.w3.org/2000/svg">
<g id="QRCodeSVG" clip-path="url(#clip0_409_6996)">
<path id="Vector" d="M0.000321637 1.75101e-05H220.624V220.624H0.000321637V1.75101e-05Z" fill="var(--fill-0, white)" style="fill:white;fill-opacity:1;"/>
<path id="Vector_2" d="M0.000321637 1.75101e-05H19.0665V2.72376H0.000321637V1.75101e-05ZM24.514 1.75101e-05H43.5803V2.72376H24.514V1.75101e-05ZM49.0278 1.75101e-05H51.7515V2.72376H49.0278V1.75101e-05ZM59.9228 1.75101e-05H62.6465V2.72376H59.9228V1.75101e-05ZM65.3702 1.75101e-05H68.094V2.72376H65.3702V1.75101e-05ZM70.8177 1.75101e-05H73.5415V2.72376H70.8177V1.75101e-05ZM100.779 1.75101e-05H111.674V2.72376H100.779V1.75101e-05ZM114.398 1.75101e-05H122.569V2.72376H114.398V1.75101e-05ZM136.188 1.75101e-05H138.911V2.72376H136.188V1.75101e-05ZM141.635 1.75101e-05H144.359V2.72376H141.635V1.75101e-05ZM147.083 1.75101e-05H155.254V2.72376H147.083V1.75101e-05ZM157.978 1.75101e-05H177.044V2.72376H157.978V1.75101e-05ZM179.768 1.75101e-05H190.663V2.72376H179.768V1.75101e-05ZM201.558 1.75101e-05H220.624V2.72376H201.558V1.75101e-05ZM0.000321637 2.72376H2.72407V5.44751H0.000321637V2.72376ZM16.3428 2.72376H19.0665V5.44751H16.3428V2.72376ZM21.7903 2.72376H27.2378V5.44751H21.7903V2.72376ZM29.9615 2.72376H32.6853V5.44751H29.9615V2.72376ZM43.5803 2.72376H46.304V5.44751H43.5803V2.72376ZM49.0278 2.72376H54.4753V5.44751H49.0278V2.72376ZM57.199 2.72376H65.3702V5.44751H57.199V2.72376ZM68.094 2.72376H70.8177V5.44751H68.094V2.72376ZM81.7127 2.72376H87.1602V5.44751H81.7127V2.72376ZM89.884 2.72376H92.6077V5.44751H89.884V2.72376ZM95.3315 2.72376H98.0552V5.44751H95.3315V2.72376ZM103.503 2.72376H111.674V5.44751H103.503V2.72376ZM117.121 2.72376H119.845V5.44751H117.121V2.72376ZM130.74 2.72376H136.188V5.44751H130.74V2.72376ZM138.911 2.72376H147.083V5.44751H138.911V2.72376ZM155.254 2.72376H157.978V5.44751H155.254V2.72376ZM163.425 2.72376H168.873V5.44751H163.425V2.72376ZM171.596 2.72376H179.768V5.44751H171.596V2.72376ZM185.215 2.72376H187.939V5.44751H185.215V2.72376ZM190.663 2.72376H198.834V5.44751H190.663V2.72376ZM201.558 2.72376H204.281V5.44751H201.558V2.72376ZM217.9 2.72376H220.624V5.44751H217.9V2.72376ZM0.000321637 5.44751H2.72407V8.17126H0.000321637V5.44751ZM5.44782 5.44751H13.6191V8.17126H5.44782V5.44751ZM16.3428 5.44751H19.0665V8.17126H16.3428V5.44751ZM21.7903 5.44751H40.8565V8.17126H21.7903V5.44751ZM43.5803 5.44751H46.304V8.17126H43.5803V5.44751ZM51.7515 5.44751H54.4753V8.17126H51.7515V5.44751ZM65.3702 5.44751H73.5415V8.17126H65.3702V5.44751ZM84.4365 5.44751H87.1602V8.17126H84.4365V5.44751ZM89.884 5.44751H92.6077V8.17126H89.884V5.44751ZM95.3315 5.44751H98.0552V8.17126H95.3315V5.44751ZM103.503 5.44751H111.674V8.17126H103.503V5.44751ZM114.398 5.44751H117.121V8.17126H114.398V5.44751ZM122.569 5.44751H128.016V8.17126H122.569V5.44751ZM133.464 5.44751H136.188V8.17126H133.464V5.44751ZM141.635 5.44751H147.083V8.17126H141.635V5.44751ZM149.806 5.44751H152.53V8.17126H149.806V5.44751ZM160.701 5.44751H163.425V8.17126H160.701V5.44751ZM166.149 5.44751H168.873V8.17126H166.149V5.44751ZM171.596 5.44751H179.768V8.17126H171.596V5.44751ZM182.491 5.44751H193.386V8.17126H182.491V5.44751ZM196.11 5.44751H198.834V8.17126H196.11V5.44751ZM201.558 5.44751H204.281V8.17126H201.558V5.44751ZM207.005 5.44751H215.176V8.17126H207.005V5.44751ZM217.9 5.44751H220.624V8.17126H217.9V5.44751ZM0.000321637 8.17126H2.72407V10.895H0.000321637V8.17126ZM5.44782 8.17126H13.6191V10.895H5.44782V8.17126ZM16.3428 8.17126H19.0665V10.895H16.3428V8.17126ZM21.7903 8.17126H24.514V10.895H21.7903V8.17126ZM27.2378 8.17126H29.9615V10.895H27.2378V8.17126ZM32.6853 8.17126H35.409V10.895H32.6853V8.17126ZM38.1328 8.17126H43.5803V10.895H38.1328V8.17126ZM46.304 8.17126H49.0278V10.895H46.304V8.17126ZM57.199 8.17126H59.9228V10.895H57.199V8.17126ZM68.094 8.17126H70.8177V10.895H68.094V8.17126ZM73.5415 8.17126H76.2652V10.895H73.5415V8.17126ZM98.0552 8.17126H100.779V10.895H98.0552V8.17126ZM103.503 8.17126H108.95V10.895H103.503V8.17126ZM122.569 8.17126H128.016V10.895H122.569V8.17126ZM130.74 8.17126H133.464V10.895H130.74V8.17126ZM138.911 8.17126H144.359V10.895H138.911V8.17126ZM149.806 8.17126H152.53V10.895H149.806V8.17126ZM160.701 8.17126H166.149V10.895H160.701V8.17126ZM168.873 8.17126H171.596V10.895H168.873V8.17126ZM174.32 8.17126H179.768V10.895H174.32V8.17126ZM182.491 8.17126H185.215V10.895H182.491V8.17126ZM190.663 8.17126H193.386V10.895H190.663V8.17126ZM196.11 8.17126H198.834V10.895H196.11V8.17126ZM201.558 8.17126H204.281V10.895H201.558V8.17126ZM207.005 8.17126H215.176V10.895H207.005V8.17126ZM217.9 8.17126H220.624V10.895H217.9V8.17126ZM0.000321637 10.895H2.72407V13.6188H0.000321637V10.895ZM5.44782 10.895H13.6191V13.6188H5.44782V10.895ZM16.3428 10.895H19.0665V13.6188H16.3428V10.895ZM21.7903 10.895H24.514V13.6188H21.7903V10.895ZM29.9615 10.895H32.6853V13.6188H29.9615V10.895ZM51.7515 10.895H57.199V13.6188H51.7515V10.895ZM65.3702 10.895H78.989V13.6188H65.3702V10.895ZM89.884 10.895H92.6077V13.6188H89.884V10.895ZM100.779 10.895H108.95V13.6188H100.779V10.895ZM122.569 10.895H125.293V13.6188H122.569V10.895ZM128.016 10.895H144.359V13.6188H128.016V10.895ZM147.083 10.895H149.806V13.6188H147.083V10.895ZM166.149 10.895H168.873V13.6188H166.149V10.895ZM171.596 10.895H177.044V13.6188H171.596V10.895ZM179.768 10.895H190.663V13.6188H179.768V10.895ZM201.558 10.895H204.281V13.6188H201.558V10.895ZM207.005 10.895H215.176V13.6188H207.005V10.895ZM217.9 10.895H220.624V13.6188H217.9V10.895ZM0.000321637 13.6188H2.72407V16.3425H0.000321637V13.6188ZM16.3428 13.6188H19.0665V16.3425H16.3428V13.6188ZM21.7903 13.6188H29.9615V16.3425H21.7903V13.6188ZM35.409 13.6188H40.8565V16.3425H35.409V13.6188ZM43.5803 13.6188H46.304V16.3425H43.5803V13.6188ZM51.7515 13.6188H54.4753V16.3425H51.7515V13.6188ZM62.6465 13.6188H68.094V16.3425H62.6465V13.6188ZM76.2652 13.6188H87.1602V16.3425H76.2652V13.6188ZM92.6077 13.6188H95.3315V16.3425H92.6077V13.6188ZM106.226 13.6188H108.95V16.3425H106.226V13.6188ZM111.674 13.6188H122.569V16.3425H111.674V13.6188ZM130.74 13.6188H133.464V16.3425H130.74V13.6188ZM141.635 13.6188H144.359V16.3425H141.635V13.6188ZM147.083 13.6188H152.53V16.3425H147.083V13.6188ZM157.978 13.6188H160.701V16.3425H157.978V13.6188ZM163.425 13.6188H168.873V16.3425H163.425V13.6188ZM177.044 13.6188H179.768V16.3425H177.044V13.6188ZM185.215 13.6188H190.663V16.3425H185.215V13.6188ZM193.386 13.6188H196.11V16.3425H193.386V13.6188ZM201.558 13.6188H204.281V16.3425H201.558V13.6188ZM217.9 13.6188H220.624V16.3425H217.9V13.6188ZM0.000321637 16.3425H19.0665V19.0662H0.000321637V16.3425ZM21.7903 16.3425H24.514V19.0662H21.7903V16.3425ZM27.2378 16.3425H29.9615V19.0662H27.2378V16.3425ZM32.6853 16.3425H35.409V19.0662H32.6853V16.3425ZM38.1328 16.3425H40.8565V19.0662H38.1328V16.3425ZM43.5803 16.3425H46.304V19.0662H43.5803V16.3425ZM49.0278 16.3425H51.7515V19.0662H49.0278V16.3425ZM54.4753 16.3425H57.199V19.0662H54.4753V16.3425ZM59.9228 16.3425H62.6465V19.0662H59.9228V16.3425ZM65.3702 16.3425H68.094V19.0662H65.3702V16.3425ZM70.8177 16.3425H73.5415V19.0662H70.8177V16.3425ZM76.2652 16.3425H78.989V19.0662H76.2652V16.3425ZM81.7127 16.3425H84.4365V19.0662H81.7127V16.3425ZM87.1602 16.3425H89.884V19.0662H87.1602V16.3425ZM92.6077 16.3425H95.3315V19.0662H92.6077V16.3425ZM98.0552 16.3425H100.779V19.0662H98.0552V16.3425ZM103.503 16.3425H106.226V19.0662H103.503V16.3425ZM108.95 16.3425H111.674V19.0662H108.95V16.3425ZM114.398 16.3425H117.121V19.0662H114.398V16.3425ZM119.845 16.3425H122.569V19.0662H119.845V16.3425ZM125.293 16.3425H128.016V19.0662H125.293V16.3425ZM130.74 16.3425H133.464V19.0662H130.74V16.3425ZM136.188 16.3425H138.911V19.0662H136.188V16.3425ZM141.635 16.3425H144.359V19.0662H141.635V16.3425ZM147.083 16.3425H149.806V19.0662H147.083V16.3425ZM152.53 16.3425H155.254V19.0662H152.53V16.3425ZM157.978 16.3425H160.701V19.0662H157.978V16.3425ZM163.425 16.3425H166.149V19.0662H163.425V16.3425ZM168.873 16.3425H171.596V19.0662H168.873V16.3425ZM174.32 16.3425H177.044V19.0662H174.32V16.3425ZM179.768 16.3425H182.491V19.0662H179.768V16.3425ZM185.215 16.3425H187.939V19.0662H185.215V16.3425ZM190.663 16.3425H193.386V19.0662H190.663V16.3425ZM196.11 16.3425H198.834V19.0662H196.11V16.3425ZM201.558 16.3425H220.624V19.0662H201.558V16.3425ZM27.2378 19.0662H32.6853V21.79H27.2378V19.0662ZM40.8565 19.0662H49.0278V21.79H40.8565V19.0662ZM51.7515 19.0662H54.4753V21.79H51.7515V19.0662ZM62.6465 19.0662H68.094V21.79H62.6465V19.0662ZM76.2652 19.0662H84.4365V21.79H76.2652V19.0662ZM98.0552 19.0662H108.95V21.79H98.0552V19.0662ZM117.121 19.0662H119.845V21.79H117.121V19.0662ZM122.569 19.0662H133.464V21.79H122.569V19.0662ZM141.635 19.0662H144.359V21.79H141.635V19.0662ZM147.083 19.0662H149.806V21.79H147.083V19.0662ZM152.53 19.0662H155.254V21.79H152.53V19.0662ZM157.978 19.0662H160.701V21.79H157.978V19.0662ZM163.425 19.0662H171.596V21.79H163.425V19.0662ZM190.663 19.0662H193.386V21.79H190.663V19.0662ZM5.44782 21.79H8.17156V24.5137H5.44782V21.79ZM13.6191 21.79H27.2378V24.5137H13.6191V21.79ZM32.6853 21.79H43.5803V24.5137H32.6853V21.79ZM46.304 21.79H49.0278V24.5137H46.304V21.79ZM51.7515 21.79H57.199V24.5137H51.7515V21.79ZM65.3702 21.79H78.989V24.5137H65.3702V21.79ZM81.7127 21.79H84.4365V24.5137H81.7127V21.79ZM87.1602 21.79H89.884V24.5137H87.1602V21.79ZM92.6077 21.79H95.3315V24.5137H92.6077V21.79ZM108.95 21.79H111.674V24.5137H108.95V21.79ZM114.398 21.79H119.845V24.5137H114.398V21.79ZM122.569 21.79H128.016V24.5137H122.569V21.79ZM130.74 21.79H149.806V24.5137H130.74V21.79ZM152.53 21.79H155.254V24.5137H152.53V21.79ZM157.978 21.79H160.701V24.5137H157.978V21.79ZM163.425 21.79H166.149V24.5137H163.425V21.79ZM171.596 21.79H182.491V24.5137H171.596V21.79ZM185.215 21.79H196.11V24.5137H185.215V21.79ZM198.834 21.79H201.558V24.5137H198.834V21.79ZM204.281 21.79H217.9V24.5137H204.281V21.79ZM5.44782 24.5137H16.3428V27.2375H5.44782V24.5137ZM24.514 24.5137H32.6853V27.2375H24.514V24.5137ZM38.1328 24.5137H40.8565V27.2375H38.1328V24.5137ZM43.5803 24.5137H59.9228V27.2375H43.5803V24.5137ZM65.3702 24.5137H68.094V27.2375H65.3702V24.5137ZM73.5415 24.5137H76.2652V27.2375H73.5415V24.5137ZM106.226 24.5137H108.95V27.2375H106.226V24.5137ZM114.398 24.5137H119.845V27.2375H114.398V24.5137ZM125.293 24.5137H128.016V27.2375H125.293V24.5137ZM130.74 24.5137H133.464V27.2375H130.74V24.5137ZM136.188 24.5137H141.635V27.2375H136.188V24.5137ZM144.359 24.5137H147.083V27.2375H144.359V24.5137ZM149.806 24.5137H155.254V27.2375H149.806V24.5137ZM157.978 24.5137H160.701V27.2375H157.978V24.5137ZM163.425 24.5137H166.149V27.2375H163.425V24.5137ZM168.873 24.5137H174.32V27.2375H168.873V24.5137ZM177.044 24.5137H179.768V27.2375H177.044V24.5137ZM190.663 24.5137H193.386V27.2375H190.663V24.5137ZM196.11 24.5137H198.834V27.2375H196.11V24.5137ZM201.558 24.5137H207.005V27.2375H201.558V24.5137ZM209.729 24.5137H212.453V27.2375H209.729V24.5137ZM215.176 24.5137H220.624V27.2375H215.176V24.5137ZM0.000321637 27.2375H5.44782V29.9612H0.000321637V27.2375ZM16.3428 27.2375H27.2378V29.9612H16.3428V27.2375ZM29.9615 27.2375H32.6853V29.9612H29.9615V27.2375ZM38.1328 27.2375H49.0278V29.9612H38.1328V27.2375ZM54.4753 27.2375H59.9228V29.9612H54.4753V27.2375ZM65.3702 27.2375H70.8177V29.9612H65.3702V27.2375ZM81.7127 27.2375H84.4365V29.9612H81.7127V27.2375ZM87.1602 27.2375H89.884V29.9612H87.1602V27.2375ZM95.3315 27.2375H106.226V29.9612H95.3315V27.2375ZM108.95 27.2375H117.121V29.9612H108.95V27.2375ZM119.845 27.2375H125.293V29.9612H119.845V27.2375ZM128.016 27.2375H130.74V29.9612H128.016V27.2375ZM133.464 27.2375H136.188V29.9612H133.464V27.2375ZM138.911 27.2375H141.635V29.9612H138.911V27.2375ZM147.083 27.2375H149.806V29.9612H147.083V27.2375ZM155.254 27.2375H157.978V29.9612H155.254V27.2375ZM160.701 27.2375H166.149V29.9612H160.701V27.2375ZM168.873 27.2375H171.596V29.9612H168.873V27.2375ZM179.768 27.2375H185.215V29.9612H179.768V27.2375ZM190.663 27.2375H204.281V29.9612H190.663V27.2375ZM212.453 27.2375H220.624V29.9612H212.453V27.2375ZM0.000321637 29.9612H2.72407V32.685H0.000321637V29.9612ZM5.44782 29.9612H13.6191V32.685H5.44782V29.9612ZM19.0665 29.9612H21.7903V32.685H19.0665V29.9612ZM38.1328 29.9612H40.8565V32.685H38.1328V29.9612ZM43.5803 29.9612H46.304V32.685H43.5803V29.9612ZM54.4753 29.9612H59.9228V32.685H54.4753V29.9612ZM62.6465 29.9612H65.3702V32.685H62.6465V29.9612ZM68.094 29.9612H73.5415V32.685H68.094V29.9612ZM87.1602 29.9612H89.884V32.685H87.1602V29.9612ZM98.0552 29.9612H106.226V32.685H98.0552V29.9612ZM108.95 29.9612H117.121V32.685H108.95V29.9612ZM119.845 29.9612H125.293V32.685H119.845V29.9612ZM128.016 29.9612H136.188V32.685H128.016V29.9612ZM147.083 29.9612H152.53V32.685H147.083V29.9612ZM157.978 29.9612H160.701V32.685H157.978V29.9612ZM168.873 29.9612H174.32V32.685H168.873V29.9612ZM179.768 29.9612H182.491V32.685H179.768V29.9612ZM185.215 29.9612H187.939V32.685H185.215V29.9612ZM190.663 29.9612H193.386V32.685H190.663V29.9612ZM198.834 29.9612H204.281V32.685H198.834V29.9612ZM217.9 29.9612H220.624V32.685H217.9V29.9612ZM2.72407 32.685H5.44782V35.4087H2.72407V32.685ZM10.8953 32.685H19.0665V35.4087H10.8953V32.685ZM21.7903 32.685H24.514V35.4087H21.7903V32.685ZM27.2378 32.685H38.1328V35.4087H27.2378V32.685ZM40.8565 32.685H57.199V35.4087H40.8565V32.685ZM59.9228 32.685H62.6465V35.4087H59.9228V32.685ZM65.3702 32.685H68.094V35.4087H65.3702V32.685ZM76.2652 32.685H78.989V35.4087H76.2652V32.685ZM81.7127 32.685H84.4365V35.4087H81.7127V32.685ZM87.1602 32.685H89.884V35.4087H87.1602V32.685ZM92.6077 32.685H95.3315V35.4087H92.6077V32.685ZM108.95 32.685H114.398V35.4087H108.95V32.685ZM125.293 32.685H128.016V35.4087H125.293V32.685ZM130.74 32.685H133.464V35.4087H130.74V32.685ZM136.188 32.685H138.911V35.4087H136.188V32.685ZM141.635 32.685H149.806V35.4087H141.635V32.685ZM152.53 32.685H157.978V35.4087H152.53V32.685ZM166.149 32.685H168.873V35.4087H166.149V32.685ZM174.32 32.685H179.768V35.4087H174.32V32.685ZM185.215 32.685H196.11V35.4087H185.215V32.685ZM204.281 32.685H209.729V35.4087H204.281V32.685ZM217.9 32.685H220.624V35.4087H217.9V32.685ZM5.44782 35.4087H8.17156V38.1325H5.44782V35.4087ZM10.8953 35.4087H13.6191V38.1325H10.8953V35.4087ZM27.2378 35.4087H40.8565V38.1325H27.2378V35.4087ZM46.304 35.4087H51.7515V38.1325H46.304V35.4087ZM57.199 35.4087H59.9228V38.1325H57.199V35.4087ZM62.6465 35.4087H65.3702V38.1325H62.6465V35.4087ZM76.2652 35.4087H81.7127V38.1325H76.2652V35.4087ZM84.4365 35.4087H89.884V38.1325H84.4365V35.4087ZM92.6077 35.4087H95.3315V38.1325H92.6077V35.4087ZM98.0552 35.4087H103.503V38.1325H98.0552V35.4087ZM106.226 35.4087H114.398V38.1325H106.226V35.4087ZM138.911 35.4087H141.635V38.1325H138.911V35.4087ZM144.359 35.4087H149.806V38.1325H144.359V35.4087ZM157.978 35.4087H160.701V38.1325H157.978V35.4087ZM179.768 35.4087H187.939V38.1325H179.768V35.4087ZM190.663 35.4087H196.11V38.1325H190.663V35.4087ZM209.729 35.4087H212.453V38.1325H209.729V35.4087ZM217.9 35.4087H220.624V38.1325H217.9V35.4087ZM5.44782 38.1325H10.8953V40.8562H5.44782V38.1325ZM16.3428 38.1325H21.7903V40.8562H16.3428V38.1325ZM24.514 38.1325H27.2378V40.8562H24.514V38.1325ZM29.9615 38.1325H35.409V40.8562H29.9615V38.1325ZM40.8565 38.1325H43.5803V40.8562H40.8565V38.1325ZM46.304 38.1325H54.4753V40.8562H46.304V38.1325ZM57.199 38.1325H59.9228V40.8562H57.199V38.1325ZM62.6465 38.1325H70.8177V40.8562H62.6465V38.1325ZM73.5415 38.1325H84.4365V40.8562H73.5415V38.1325ZM95.3315 38.1325H98.0552V40.8562H95.3315V38.1325ZM108.95 38.1325H119.845V40.8562H108.95V38.1325ZM122.569 38.1325H125.293V40.8562H122.569V38.1325ZM128.016 38.1325H133.464V40.8562H128.016V38.1325ZM141.635 38.1325H152.53V40.8562H141.635V38.1325ZM155.254 38.1325H157.978V40.8562H155.254V38.1325ZM160.701 38.1325H163.425V40.8562H160.701V38.1325ZM168.873 38.1325H179.768V40.8562H168.873V38.1325ZM182.491 38.1325H185.215V40.8562H182.491V38.1325ZM187.939 38.1325H190.663V40.8562H187.939V38.1325ZM201.558 38.1325H212.453V40.8562H201.558V38.1325ZM19.0665 40.8562H21.7903V43.58H19.0665V40.8562ZM24.514 40.8562H35.409V43.58H24.514V40.8562ZM38.1328 40.8562H43.5803V43.58H38.1328V40.8562ZM46.304 40.8562H49.0278V43.58H46.304V40.8562ZM51.7515 40.8562H54.4753V43.58H51.7515V40.8562ZM57.199 40.8562H59.9228V43.58H57.199V40.8562ZM62.6465 40.8562H65.3702V43.58H62.6465V40.8562ZM70.8177 40.8562H76.2652V43.58H70.8177V40.8562ZM87.1602 40.8562H89.884V43.58H87.1602V40.8562ZM106.226 40.8562H108.95V43.58H106.226V40.8562ZM111.674 40.8562H114.398V43.58H111.674V40.8562ZM119.845 40.8562H128.016V43.58H119.845V40.8562ZM130.74 40.8562H133.464V43.58H130.74V40.8562ZM138.911 40.8562H141.635V43.58H138.911V40.8562ZM152.53 40.8562H155.254V43.58H152.53V40.8562ZM157.978 40.8562H163.425V43.58H157.978V40.8562ZM182.491 40.8562H185.215V43.58H182.491V40.8562ZM193.386 40.8562H196.11V43.58H193.386V40.8562ZM204.281 40.8562H207.005V43.58H204.281V40.8562ZM2.72407 43.58H19.0665V46.3037H2.72407V43.58ZM21.7903 43.58H24.514V46.3037H21.7903V43.58ZM29.9615 43.58H32.6853V46.3037H29.9615V43.58ZM40.8565 43.58H51.7515V46.3037H40.8565V43.58ZM54.4753 43.58H57.199V46.3037H54.4753V43.58ZM59.9228 43.58H70.8177V46.3037H59.9228V43.58ZM76.2652 43.58H78.989V46.3037H76.2652V43.58ZM89.884 43.58H92.6077V46.3037H89.884V43.58ZM95.3315 43.58H100.779V46.3037H95.3315V43.58ZM106.226 43.58H108.95V46.3037H106.226V43.58ZM111.674 43.58H125.293V46.3037H111.674V43.58ZM128.016 43.58H130.74V46.3037H128.016V43.58ZM136.188 43.58H138.911V46.3037H136.188V43.58ZM141.635 43.58H149.806V46.3037H141.635V43.58ZM152.53 43.58H155.254V46.3037H152.53V43.58ZM157.978 43.58H160.701V46.3037H157.978V43.58ZM163.425 43.58H171.596V46.3037H163.425V43.58ZM177.044 43.58H182.491V46.3037H177.044V43.58ZM185.215 43.58H204.281V46.3037H185.215V43.58ZM207.005 43.58H209.729V46.3037H207.005V43.58ZM215.176 43.58H220.624V46.3037H215.176V43.58ZM0.000321637 46.3037H5.44782V49.0275H0.000321637V46.3037ZM8.17156 46.3037H13.6191V49.0275H8.17156V46.3037ZM19.0665 46.3037H29.9615V49.0275H19.0665V46.3037ZM38.1328 46.3037H46.304V49.0275H38.1328V46.3037ZM49.0278 46.3037H65.3702V49.0275H49.0278V46.3037ZM68.094 46.3037H78.989V49.0275H68.094V46.3037ZM81.7127 46.3037H87.1602V49.0275H81.7127V46.3037ZM98.0552 46.3037H100.779V49.0275H98.0552V46.3037ZM106.226 46.3037H108.95V49.0275H106.226V46.3037ZM111.674 46.3037H114.398V49.0275H111.674V46.3037ZM117.121 46.3037H119.845V49.0275H117.121V46.3037ZM122.569 46.3037H125.293V49.0275H122.569V46.3037ZM130.74 46.3037H136.188V49.0275H130.74V46.3037ZM141.635 46.3037H149.806V49.0275H141.635V46.3037ZM155.254 46.3037H157.978V49.0275H155.254V46.3037ZM166.149 46.3037H171.596V49.0275H166.149V46.3037ZM177.044 46.3037H182.491V49.0275H177.044V46.3037ZM187.939 46.3037H190.663V49.0275H187.939V46.3037ZM193.386 46.3037H198.834V49.0275H193.386V46.3037ZM207.005 46.3037H209.729V49.0275H207.005V46.3037ZM8.17156 49.0275H10.8953V51.7512H8.17156V49.0275ZM16.3428 49.0275H24.514V51.7512H16.3428V49.0275ZM32.6853 49.0275H35.409V51.7512H32.6853V49.0275ZM40.8565 49.0275H49.0278V51.7512H40.8565V49.0275ZM54.4753 49.0275H59.9228V51.7512H54.4753V49.0275ZM62.6465 49.0275H68.094V51.7512H62.6465V49.0275ZM78.989 49.0275H87.1602V51.7512H78.989V49.0275ZM89.884 49.0275H98.0552V51.7512H89.884V49.0275ZM106.226 49.0275H114.398V51.7512H106.226V49.0275ZM117.121 49.0275H119.845V51.7512H117.121V49.0275ZM125.293 49.0275H133.464V51.7512H125.293V49.0275ZM136.188 49.0275H138.911V51.7512H136.188V49.0275ZM141.635 49.0275H157.978V51.7512H141.635V49.0275ZM160.701 49.0275H174.32V51.7512H160.701V49.0275ZM177.044 49.0275H185.215V51.7512H177.044V49.0275ZM190.663 49.0275H201.558V51.7512H190.663V49.0275ZM204.281 49.0275H215.176V51.7512H204.281V49.0275ZM0.000321637 51.7512H2.72407V54.475H0.000321637V51.7512ZM5.44782 51.7512H8.17156V54.475H5.44782V51.7512ZM10.8953 51.7512H13.6191V54.475H10.8953V51.7512ZM19.0665 51.7512H24.514V54.475H19.0665V51.7512ZM27.2378 51.7512H32.6853V54.475H27.2378V51.7512ZM35.409 51.7512H38.1328V54.475H35.409V51.7512ZM43.5803 51.7512H59.9228V54.475H43.5803V51.7512ZM65.3702 51.7512H68.094V54.475H65.3702V51.7512ZM73.5415 51.7512H76.2652V54.475H73.5415V51.7512ZM78.989 51.7512H81.7127V54.475H78.989V51.7512ZM95.3315 51.7512H98.0552V54.475H95.3315V51.7512ZM103.503 51.7512H108.95V54.475H103.503V51.7512ZM111.674 51.7512H114.398V54.475H111.674V51.7512ZM119.845 51.7512H125.293V54.475H119.845V51.7512ZM128.016 51.7512H130.74V54.475H128.016V51.7512ZM136.188 51.7512H141.635V54.475H136.188V51.7512ZM144.359 51.7512H147.083V54.475H144.359V51.7512ZM152.53 51.7512H160.701V54.475H152.53V51.7512ZM171.596 51.7512H177.044V54.475H171.596V51.7512ZM179.768 51.7512H185.215V54.475H179.768V51.7512ZM187.939 51.7512H193.386V54.475H187.939V51.7512ZM196.11 51.7512H209.729V54.475H196.11V51.7512ZM212.453 51.7512H215.176V54.475H212.453V51.7512ZM217.9 51.7512H220.624V54.475H217.9V51.7512ZM2.72407 54.475H5.44782V57.1987H2.72407V54.475ZM10.8953 54.475H13.6191V57.1987H10.8953V54.475ZM16.3428 54.475H19.0665V57.1987H16.3428V54.475ZM21.7903 54.475H24.514V57.1987H21.7903V54.475ZM29.9615 54.475H32.6853V57.1987H29.9615V54.475ZM43.5803 54.475H46.304V57.1987H43.5803V54.475ZM49.0278 54.475H51.7515V57.1987H49.0278V54.475ZM57.199 54.475H62.6465V57.1987H57.199V54.475ZM68.094 54.475H70.8177V57.1987H68.094V54.475ZM73.5415 54.475H84.4365V57.1987H73.5415V54.475ZM87.1602 54.475H89.884V57.1987H87.1602V54.475ZM95.3315 54.475H103.503V57.1987H95.3315V54.475ZM108.95 54.475H111.674V57.1987H108.95V54.475ZM125.293 54.475H138.911V57.1987H125.293V54.475ZM147.083 54.475H160.701V57.1987H147.083V54.475ZM166.149 54.475H185.215V57.1987H166.149V54.475ZM190.663 54.475H196.11V57.1987H190.663V54.475ZM198.834 54.475H207.005V57.1987H198.834V54.475ZM5.44782 57.1987H10.8953V59.9224H5.44782V57.1987ZM19.0665 57.1987H21.7903V59.9224H19.0665V57.1987ZM24.514 57.1987H32.6853V59.9224H24.514V57.1987ZM35.409 57.1987H46.304V59.9224H35.409V57.1987ZM51.7515 57.1987H59.9228V59.9224H51.7515V57.1987ZM65.3702 57.1987H70.8177V59.9224H65.3702V57.1987ZM73.5415 57.1987H76.2652V59.9224H73.5415V57.1987ZM81.7127 57.1987H92.6077V59.9224H81.7127V57.1987ZM95.3315 57.1987H98.0552V59.9224H95.3315V57.1987ZM108.95 57.1987H117.121V59.9224H108.95V57.1987ZM119.845 57.1987H125.293V59.9224H119.845V57.1987ZM128.016 57.1987H136.188V59.9224H128.016V57.1987ZM138.911 57.1987H141.635V59.9224H138.911V57.1987ZM147.083 57.1987H149.806V59.9224H147.083V57.1987ZM157.978 57.1987H160.701V59.9224H157.978V57.1987ZM166.149 57.1987H168.873V59.9224H166.149V57.1987ZM177.044 57.1987H179.768V59.9224H177.044V57.1987ZM182.491 57.1987H185.215V59.9224H182.491V57.1987ZM187.939 57.1987H196.11V59.9224H187.939V57.1987ZM201.558 57.1987H209.729V59.9224H201.558V57.1987ZM215.176 57.1987H220.624V59.9224H215.176V57.1987ZM0.000321637 59.9224H2.72407V62.6462H0.000321637V59.9224ZM8.17156 59.9224H10.8953V62.6462H8.17156V59.9224ZM13.6191 59.9224H19.0665V62.6462H13.6191V59.9224ZM21.7903 59.9224H29.9615V62.6462H21.7903V59.9224ZM35.409 59.9224H38.1328V62.6462H35.409V59.9224ZM46.304 59.9224H49.0278V62.6462H46.304V59.9224ZM54.4753 59.9224H65.3702V62.6462H54.4753V59.9224ZM68.094 59.9224H70.8177V62.6462H68.094V59.9224ZM78.989 59.9224H87.1602V62.6462H78.989V59.9224ZM89.884 59.9224H98.0552V62.6462H89.884V59.9224ZM100.779 59.9224H108.95V62.6462H100.779V59.9224ZM111.674 59.9224H114.398V62.6462H111.674V59.9224ZM119.845 59.9224H122.569V62.6462H119.845V59.9224ZM128.016 59.9224H130.74V62.6462H128.016V59.9224ZM133.464 59.9224H136.188V62.6462H133.464V59.9224ZM138.911 59.9224H141.635V62.6462H138.911V59.9224ZM147.083 59.9224H152.53V62.6462H147.083V59.9224ZM157.978 59.9224H163.425V62.6462H157.978V59.9224ZM168.873 59.9224H171.596V62.6462H168.873V59.9224ZM179.768 59.9224H182.491V62.6462H179.768V59.9224ZM185.215 59.9224H190.663V62.6462H185.215V59.9224ZM209.729 59.9224H217.9V62.6462H209.729V59.9224ZM10.8953 62.6462H16.3428V65.3699H10.8953V62.6462ZM19.0665 62.6462H24.514V65.3699H19.0665V62.6462ZM32.6853 62.6462H35.409V65.3699H32.6853V62.6462ZM40.8565 62.6462H43.5803V65.3699H40.8565V62.6462ZM54.4753 62.6462H68.094V65.3699H54.4753V62.6462ZM70.8177 62.6462H78.989V65.3699H70.8177V62.6462ZM81.7127 62.6462H84.4365V65.3699H81.7127V62.6462ZM87.1602 62.6462H89.884V65.3699H87.1602V62.6462ZM95.3315 62.6462H108.95V65.3699H95.3315V62.6462ZM117.121 62.6462H119.845V65.3699H117.121V62.6462ZM125.293 62.6462H128.016V65.3699H125.293V62.6462ZM133.464 62.6462H136.188V65.3699H133.464V62.6462ZM149.806 62.6462H152.53V65.3699H149.806V62.6462ZM155.254 62.6462H157.978V65.3699H155.254V62.6462ZM160.701 62.6462H163.425V65.3699H160.701V62.6462ZM166.149 62.6462H174.32V65.3699H166.149V62.6462ZM177.044 62.6462H182.491V65.3699H177.044V62.6462ZM185.215 62.6462H193.386V65.3699H185.215V62.6462ZM196.11 62.6462H201.558V65.3699H196.11V62.6462ZM207.005 62.6462H215.176V65.3699H207.005V62.6462ZM0.000321637 65.3699H2.72407V68.0937H0.000321637V65.3699ZM10.8953 65.3699H24.514V68.0937H10.8953V65.3699ZM27.2378 65.3699H35.409V68.0937H27.2378V65.3699ZM51.7515 65.3699H54.4753V68.0937H51.7515V65.3699ZM57.199 65.3699H59.9228V68.0937H57.199V65.3699ZM62.6465 65.3699H78.989V68.0937H62.6465V65.3699ZM84.4365 65.3699H87.1602V68.0937H84.4365V65.3699ZM95.3315 65.3699H106.226V68.0937H95.3315V65.3699ZM111.674 65.3699H122.569V68.0937H111.674V65.3699ZM130.74 65.3699H152.53V68.0937H130.74V65.3699ZM160.701 65.3699H163.425V68.0937H160.701V65.3699ZM166.149 65.3699H171.596V68.0937H166.149V65.3699ZM174.32 65.3699H177.044V68.0937H174.32V65.3699ZM182.491 65.3699H190.663V68.0937H182.491V65.3699ZM193.386 65.3699H209.729V68.0937H193.386V65.3699ZM212.453 65.3699H220.624V68.0937H212.453V65.3699ZM0.000321637 68.0937H2.72407V70.8174H0.000321637V68.0937ZM5.44782 68.0937H13.6191V70.8174H5.44782V68.0937ZM21.7903 68.0937H40.8565V70.8174H21.7903V68.0937ZM46.304 68.0937H51.7515V70.8174H46.304V68.0937ZM54.4753 68.0937H57.199V70.8174H54.4753V68.0937ZM59.9228 68.0937H62.6465V70.8174H59.9228V68.0937ZM65.3702 68.0937H68.094V70.8174H65.3702V68.0937ZM76.2652 68.0937H81.7127V70.8174H76.2652V68.0937ZM87.1602 68.0937H103.503V70.8174H87.1602V68.0937ZM108.95 68.0937H117.121V70.8174H108.95V68.0937ZM119.845 68.0937H125.293V70.8174H119.845V68.0937ZM130.74 68.0937H133.464V70.8174H130.74V68.0937ZM141.635 68.0937H147.083V70.8174H141.635V68.0937ZM152.53 68.0937H157.978V70.8174H152.53V68.0937ZM160.701 68.0937H163.425V70.8174H160.701V68.0937ZM166.149 68.0937H168.873V70.8174H166.149V68.0937ZM171.596 68.0937H174.32V70.8174H171.596V68.0937ZM177.044 68.0937H179.768V70.8174H177.044V68.0937ZM185.215 68.0937H187.939V70.8174H185.215V68.0937ZM193.386 68.0937H198.834V70.8174H193.386V68.0937ZM207.005 68.0937H209.729V70.8174H207.005V68.0937ZM215.176 68.0937H217.9V70.8174H215.176V68.0937ZM2.72407 70.8174H5.44782V73.5412H2.72407V70.8174ZM8.17156 70.8174H13.6191V73.5412H8.17156V70.8174ZM16.3428 70.8174H19.0665V73.5412H16.3428V70.8174ZM21.7903 70.8174H27.2378V73.5412H21.7903V70.8174ZM29.9615 70.8174H43.5803V73.5412H29.9615V70.8174ZM49.0278 70.8174H57.199V73.5412H49.0278V70.8174ZM62.6465 70.8174H68.094V73.5412H62.6465V70.8174ZM70.8177 70.8174H73.5415V73.5412H70.8177V70.8174ZM76.2652 70.8174H78.989V73.5412H76.2652V70.8174ZM81.7127 70.8174H103.503V73.5412H81.7127V70.8174ZM108.95 70.8174H117.121V73.5412H108.95V70.8174ZM119.845 70.8174H122.569V73.5412H119.845V70.8174ZM128.016 70.8174H133.464V73.5412H128.016V70.8174ZM136.188 70.8174H138.911V73.5412H136.188V70.8174ZM141.635 70.8174H144.359V73.5412H141.635V70.8174ZM147.083 70.8174H149.806V73.5412H147.083V70.8174ZM155.254 70.8174H157.978V73.5412H155.254V70.8174ZM160.701 70.8174H163.425V73.5412H160.701V70.8174ZM166.149 70.8174H168.873V73.5412H166.149V70.8174ZM171.596 70.8174H174.32V73.5412H171.596V70.8174ZM177.044 70.8174H179.768V73.5412H177.044V70.8174ZM190.663 70.8174H193.386V73.5412H190.663V70.8174ZM196.11 70.8174H198.834V73.5412H196.11V70.8174ZM201.558 70.8174H204.281V73.5412H201.558V70.8174ZM207.005 70.8174H215.176V73.5412H207.005V70.8174ZM5.44782 73.5412H8.17156V76.2649H5.44782V73.5412ZM10.8953 73.5412H13.6191V76.2649H10.8953V73.5412ZM21.7903 73.5412H24.514V76.2649H21.7903V73.5412ZM29.9615 73.5412H32.6853V76.2649H29.9615V73.5412ZM35.409 73.5412H43.5803V76.2649H35.409V73.5412ZM46.304 73.5412H49.0278V76.2649H46.304V73.5412ZM54.4753 73.5412H59.9228V76.2649H54.4753V73.5412ZM62.6465 73.5412H68.094V76.2649H62.6465V73.5412ZM76.2652 73.5412H84.4365V76.2649H76.2652V73.5412ZM95.3315 73.5412H98.0552V76.2649H95.3315V73.5412ZM100.779 73.5412H103.503V76.2649H100.779V73.5412ZM111.674 73.5412H117.121V76.2649H111.674V73.5412ZM119.845 73.5412H133.464V76.2649H119.845V73.5412ZM141.635 73.5412H149.806V76.2649H141.635V73.5412ZM152.53 73.5412H157.978V76.2649H152.53V73.5412ZM160.701 73.5412H163.425V76.2649H160.701V73.5412ZM166.149 73.5412H171.596V76.2649H166.149V73.5412ZM179.768 73.5412H185.215V76.2649H179.768V73.5412ZM196.11 73.5412H198.834V76.2649H196.11V73.5412ZM207.005 73.5412H209.729V76.2649H207.005V73.5412ZM212.453 73.5412H215.176V76.2649H212.453V73.5412ZM0.000321637 76.2649H2.72407V78.9887H0.000321637V76.2649ZM5.44782 76.2649H8.17156V78.9887H5.44782V76.2649ZM10.8953 76.2649H24.514V78.9887H10.8953V76.2649ZM29.9615 76.2649H35.409V78.9887H29.9615V76.2649ZM40.8565 76.2649H46.304V78.9887H40.8565V76.2649ZM49.0278 76.2649H59.9228V78.9887H49.0278V76.2649ZM62.6465 76.2649H78.989V78.9887H62.6465V76.2649ZM81.7127 76.2649H84.4365V78.9887H81.7127V76.2649ZM92.6077 76.2649H95.3315V78.9887H92.6077V76.2649ZM98.0552 76.2649H100.779V78.9887H98.0552V76.2649ZM103.503 76.2649H106.226V78.9887H103.503V76.2649ZM114.398 76.2649H125.293V78.9887H114.398V76.2649ZM128.016 76.2649H144.359V78.9887H128.016V76.2649ZM147.083 76.2649H149.806V78.9887H147.083V76.2649ZM152.53 76.2649H155.254V78.9887H152.53V76.2649ZM160.701 76.2649H163.425V78.9887H160.701V76.2649ZM166.149 76.2649H171.596V78.9887H166.149V76.2649ZM174.32 76.2649H209.729V78.9887H174.32V76.2649ZM215.176 76.2649H220.624V78.9887H215.176V76.2649ZM2.72407 78.9887H10.8953V81.7124H2.72407V78.9887ZM13.6191 78.9887H16.3428V81.7124H13.6191V78.9887ZM24.514 78.9887H27.2378V81.7124H24.514V78.9887ZM29.9615 78.9887H32.6853V81.7124H29.9615V78.9887ZM35.409 78.9887H40.8565V81.7124H35.409V78.9887ZM43.5803 78.9887H46.304V81.7124H43.5803V78.9887ZM49.0278 78.9887H54.4753V81.7124H49.0278V78.9887ZM59.9228 78.9887H76.2652V81.7124H59.9228V78.9887ZM78.989 78.9887H84.4365V81.7124H78.989V78.9887ZM89.884 78.9887H92.6077V81.7124H89.884V78.9887ZM103.503 78.9887H114.398V81.7124H103.503V78.9887ZM119.845 78.9887H122.569V81.7124H119.845V78.9887ZM128.016 78.9887H133.464V81.7124H128.016V78.9887ZM138.911 78.9887H141.635V81.7124H138.911V78.9887ZM155.254 78.9887H157.978V81.7124H155.254V78.9887ZM163.425 78.9887H168.873V81.7124H163.425V78.9887ZM179.768 78.9887H182.491V81.7124H179.768V78.9887ZM0.000321637 81.7124H5.44782V84.4362H0.000321637V81.7124ZM13.6191 81.7124H21.7903V84.4362H13.6191V81.7124ZM24.514 81.7124H32.6853V84.4362H24.514V81.7124ZM38.1328 81.7124H65.3702V84.4362H38.1328V81.7124ZM73.5415 81.7124H76.2652V84.4362H73.5415V81.7124ZM81.7127 81.7124H87.1602V84.4362H81.7127V81.7124ZM95.3315 81.7124H103.503V84.4362H95.3315V81.7124ZM111.674 81.7124H114.398V84.4362H111.674V81.7124ZM117.121 81.7124H119.845V84.4362H117.121V81.7124ZM122.569 81.7124H130.74V84.4362H122.569V81.7124ZM133.464 81.7124H138.911V84.4362H133.464V81.7124ZM147.083 81.7124H152.53V84.4362H147.083V81.7124ZM155.254 81.7124H157.978V84.4362H155.254V81.7124ZM160.701 81.7124H163.425V84.4362H160.701V81.7124ZM166.149 81.7124H168.873V84.4362H166.149V81.7124ZM171.596 81.7124H174.32V84.4362H171.596V81.7124ZM177.044 81.7124H185.215V84.4362H177.044V81.7124ZM190.663 81.7124H193.386V84.4362H190.663V81.7124ZM198.834 81.7124H215.176V84.4362H198.834V81.7124ZM217.9 81.7124H220.624V84.4362H217.9V81.7124ZM0.000321637 84.4362H5.44782V87.1599H0.000321637V84.4362ZM10.8953 84.4362H13.6191V87.1599H10.8953V84.4362ZM19.0665 84.4362H24.514V87.1599H19.0665V84.4362ZM29.9615 84.4362H35.409V87.1599H29.9615V84.4362ZM38.1328 84.4362H40.8565V87.1599H38.1328V84.4362ZM46.304 84.4362H59.9228V87.1599H46.304V84.4362ZM70.8177 84.4362H81.7127V87.1599H70.8177V84.4362ZM84.4365 84.4362H87.1602V87.1599H84.4365V84.4362ZM89.884 84.4362H95.3315V87.1599H89.884V84.4362ZM98.0552 84.4362H108.95V87.1599H98.0552V84.4362ZM111.674 84.4362H119.845V87.1599H111.674V84.4362ZM128.016 84.4362H136.188V87.1599H128.016V84.4362ZM141.635 84.4362H152.53V87.1599H141.635V84.4362ZM160.701 84.4362H163.425V87.1599H160.701V84.4362ZM168.873 84.4362H171.596V87.1599H168.873V84.4362ZM174.32 84.4362H177.044V87.1599H174.32V84.4362ZM179.768 84.4362H182.491V87.1599H179.768V84.4362ZM185.215 84.4362H187.939V87.1599H185.215V84.4362ZM198.834 84.4362H207.005V87.1599H198.834V84.4362ZM209.729 84.4362H220.624V87.1599H209.729V84.4362ZM2.72407 87.1599H8.17156V89.8837H2.72407V87.1599ZM13.6191 87.1599H27.2378V89.8837H13.6191V87.1599ZM29.9615 87.1599H32.6853V89.8837H29.9615V87.1599ZM35.409 87.1599H40.8565V89.8837H35.409V87.1599ZM46.304 87.1599H49.0278V89.8837H46.304V87.1599ZM54.4753 87.1599H59.9228V89.8837H54.4753V87.1599ZM62.6465 87.1599H68.094V89.8837H62.6465V87.1599ZM70.8177 87.1599H73.5415V89.8837H70.8177V87.1599ZM76.2652 87.1599H78.989V89.8837H76.2652V87.1599ZM95.3315 87.1599H98.0552V89.8837H95.3315V87.1599ZM103.503 87.1599H106.226V89.8837H103.503V87.1599ZM108.95 87.1599H111.674V89.8837H108.95V87.1599ZM125.293 87.1599H130.74V89.8837H125.293V87.1599ZM136.188 87.1599H138.911V89.8837H136.188V87.1599ZM152.53 87.1599H155.254V89.8837H152.53V87.1599ZM157.978 87.1599H163.425V89.8837H157.978V87.1599ZM166.149 87.1599H171.596V89.8837H166.149V87.1599ZM174.32 87.1599H179.768V89.8837H174.32V87.1599ZM182.491 87.1599H198.834V89.8837H182.491V87.1599ZM201.558 87.1599H204.281V89.8837H201.558V87.1599ZM212.453 87.1599H220.624V89.8837H212.453V87.1599ZM0.000321637 89.8837H2.72407V92.6074H0.000321637V89.8837ZM5.44782 89.8837H8.17156V92.6074H5.44782V89.8837ZM10.8953 89.8837H16.3428V92.6074H10.8953V89.8837ZM19.0665 89.8837H21.7903V92.6074H19.0665V89.8837ZM27.2378 89.8837H35.409V92.6074H27.2378V89.8837ZM40.8565 89.8837H43.5803V92.6074H40.8565V89.8837ZM46.304 89.8837H51.7515V92.6074H46.304V89.8837ZM54.4753 89.8837H59.9228V92.6074H54.4753V89.8837ZM76.2652 89.8837H87.1602V92.6074H76.2652V89.8837ZM89.884 89.8837H95.3315V92.6074H89.884V89.8837ZM114.398 89.8837H117.121V92.6074H114.398V89.8837ZM122.569 89.8837H125.293V92.6074H122.569V89.8837ZM128.016 89.8837H130.74V92.6074H128.016V89.8837ZM147.083 89.8837H149.806V92.6074H147.083V89.8837ZM160.701 89.8837H163.425V92.6074H160.701V89.8837ZM166.149 89.8837H168.873V92.6074H166.149V89.8837ZM179.768 89.8837H185.215V92.6074H179.768V89.8837ZM187.939 89.8837H193.386V92.6074H187.939V89.8837ZM207.005 89.8837H209.729V92.6074H207.005V89.8837ZM215.176 89.8837H220.624V92.6074H215.176V89.8837ZM0.000321637 92.6074H5.44782V95.3312H0.000321637V92.6074ZM16.3428 92.6074H19.0665V95.3312H16.3428V92.6074ZM29.9615 92.6074H40.8565V95.3312H29.9615V92.6074ZM46.304 92.6074H51.7515V95.3312H46.304V92.6074ZM54.4753 92.6074H57.199V95.3312H54.4753V92.6074ZM59.9228 92.6074H62.6465V95.3312H59.9228V92.6074ZM65.3702 92.6074H70.8177V95.3312H65.3702V92.6074ZM73.5415 92.6074H87.1602V95.3312H73.5415V92.6074ZM89.884 92.6074H98.0552V95.3312H89.884V92.6074ZM103.503 92.6074H106.226V95.3312H103.503V92.6074ZM108.95 92.6074H111.674V95.3312H108.95V92.6074ZM119.845 92.6074H125.293V95.3312H119.845V92.6074ZM128.016 92.6074H133.464V95.3312H128.016V92.6074ZM136.188 92.6074H138.911V95.3312H136.188V92.6074ZM144.359 92.6074H147.083V95.3312H144.359V92.6074ZM149.806 92.6074H152.53V95.3312H149.806V92.6074ZM157.978 92.6074H163.425V95.3312H157.978V92.6074ZM168.873 92.6074H174.32V95.3312H168.873V92.6074ZM177.044 92.6074H179.768V95.3312H177.044V92.6074ZM185.215 92.6074H193.386V95.3312H185.215V92.6074ZM196.11 92.6074H201.558V95.3312H196.11V92.6074ZM207.005 92.6074H209.729V95.3312H207.005V92.6074ZM212.453 92.6074H220.624V95.3312H212.453V92.6074ZM2.72407 95.3312H8.17156V98.0549H2.72407V95.3312ZM24.514 95.3312H27.2378V98.0549H24.514V95.3312ZM29.9615 95.3312H51.7515V98.0549H29.9615V95.3312ZM54.4753 95.3312H57.199V98.0549H54.4753V95.3312ZM59.9228 95.3312H65.3702V98.0549H59.9228V95.3312ZM70.8177 95.3312H78.989V98.0549H70.8177V95.3312ZM81.7127 95.3312H87.1602V98.0549H81.7127V95.3312ZM89.884 95.3312H92.6077V98.0549H89.884V95.3312ZM100.779 95.3312H103.503V98.0549H100.779V95.3312ZM106.226 95.3312H114.398V98.0549H106.226V95.3312ZM117.121 95.3312H119.845V98.0549H117.121V95.3312ZM122.569 95.3312H125.293V98.0549H122.569V95.3312ZM130.74 95.3312H136.188V98.0549H130.74V95.3312ZM138.911 95.3312H141.635V98.0549H138.911V95.3312ZM147.083 95.3312H149.806V98.0549H147.083V95.3312ZM152.53 95.3312H155.254V98.0549H152.53V95.3312ZM157.978 95.3312H160.701V98.0549H157.978V95.3312ZM166.149 95.3312H174.32V98.0549H166.149V95.3312ZM185.215 95.3312H187.939V98.0549H185.215V95.3312ZM190.663 95.3312H207.005V98.0549H190.663V95.3312ZM212.453 95.3312H215.176V98.0549H212.453V95.3312ZM217.9 95.3312H220.624V98.0549H217.9V95.3312ZM2.72407 98.0549H5.44782V100.779H2.72407V98.0549ZM8.17156 98.0549H24.514V100.779H8.17156V98.0549ZM27.2378 98.0549H29.9615V100.779H27.2378V98.0549ZM32.6853 98.0549H35.409V100.779H32.6853V98.0549ZM38.1328 98.0549H40.8565V100.779H38.1328V98.0549ZM43.5803 98.0549H46.304V100.779H43.5803V98.0549ZM51.7515 98.0549H54.4753V100.779H51.7515V98.0549ZM57.199 98.0549H59.9228V100.779H57.199V98.0549ZM62.6465 98.0549H65.3702V100.779H62.6465V98.0549ZM68.094 98.0549H70.8177V100.779H68.094V98.0549ZM73.5415 98.0549H78.989V100.779H73.5415V98.0549ZM81.7127 98.0549H89.884V100.779H81.7127V98.0549ZM98.0552 98.0549H100.779V100.779H98.0552V98.0549ZM103.503 98.0549H108.95V100.779H103.503V98.0549ZM111.674 98.0549H114.398V100.779H111.674V98.0549ZM119.845 98.0549H128.016V100.779H119.845V98.0549ZM130.74 98.0549H133.464V100.779H130.74V98.0549ZM136.188 98.0549H138.911V100.779H136.188V98.0549ZM144.359 98.0549H149.806V100.779H144.359V98.0549ZM152.53 98.0549H157.978V100.779H152.53V98.0549ZM160.701 98.0549H163.425V100.779H160.701V98.0549ZM174.32 98.0549H177.044V100.779H174.32V98.0549ZM179.768 98.0549H182.491V100.779H179.768V98.0549ZM185.215 98.0549H187.939V100.779H185.215V98.0549ZM190.663 98.0549H198.834V100.779H190.663V98.0549ZM201.558 98.0549H204.281V100.779H201.558V98.0549ZM209.729 98.0549H215.176V100.779H209.729V98.0549ZM217.9 98.0549H220.624V100.779H217.9V98.0549ZM0.000321637 100.779H2.72407V103.502H0.000321637V100.779ZM8.17156 100.779H10.8953V103.502H8.17156V100.779ZM13.6191 100.779H16.3428V103.502H13.6191V100.779ZM35.409 100.779H43.5803V103.502H35.409V100.779ZM49.0278 100.779H54.4753V103.502H49.0278V100.779ZM59.9228 100.779H62.6465V103.502H59.9228V100.779ZM65.3702 100.779H76.2652V103.502H65.3702V100.779ZM78.989 100.779H81.7127V103.502H78.989V100.779ZM84.4365 100.779H100.779V103.502H84.4365V100.779ZM103.503 100.779H111.674V103.502H103.503V100.779ZM114.398 100.779H117.121V103.502H114.398V100.779ZM119.845 100.779H122.569V103.502H119.845V100.779ZM138.911 100.779H141.635V103.502H138.911V100.779ZM144.359 100.779H147.083V103.502H144.359V100.779ZM149.806 100.779H152.53V103.502H149.806V100.779ZM157.978 100.779H160.701V103.502H157.978V100.779ZM166.149 100.779H168.873V103.502H166.149V100.779ZM182.491 100.779H187.939V103.502H182.491V100.779ZM207.005 100.779H209.729V103.502H207.005V100.779ZM215.176 100.779H217.9V103.502H215.176V100.779ZM0.000321637 103.502H2.72407V106.226H0.000321637V103.502ZM5.44782 103.502H10.8953V106.226H5.44782V103.502ZM13.6191 103.502H19.0665V106.226H13.6191V103.502ZM27.2378 103.502H29.9615V106.226H27.2378V103.502ZM32.6853 103.502H35.409V106.226H32.6853V103.502ZM40.8565 103.502H43.5803V106.226H40.8565V103.502ZM46.304 103.502H57.199V106.226H46.304V103.502ZM59.9228 103.502H65.3702V106.226H59.9228V103.502ZM68.094 103.502H70.8177V106.226H68.094V103.502ZM73.5415 103.502H76.2652V106.226H73.5415V103.502ZM78.989 103.502H84.4365V106.226H78.989V103.502ZM87.1602 103.502H92.6077V106.226H87.1602V103.502ZM98.0552 103.502H100.779V106.226H98.0552V103.502ZM103.503 103.502H108.95V106.226H103.503V103.502ZM117.121 103.502H119.845V106.226H117.121V103.502ZM122.569 103.502H128.016V106.226H122.569V103.502ZM133.464 103.502H138.911V106.226H133.464V103.502ZM141.635 103.502H144.359V106.226H141.635V103.502ZM147.083 103.502H152.53V106.226H147.083V103.502ZM157.978 103.502H163.425V106.226H157.978V103.502ZM166.149 103.502H168.873V106.226H166.149V103.502ZM171.596 103.502H174.32V106.226H171.596V103.502ZM179.768 103.502H182.491V106.226H179.768V103.502ZM190.663 103.502H196.11V106.226H190.663V103.502ZM198.834 103.502H207.005V106.226H198.834V103.502ZM209.729 103.502H215.176V106.226H209.729V103.502ZM0.000321637 106.226H2.72407V108.95H0.000321637V106.226ZM5.44782 106.226H10.8953V108.95H5.44782V106.226ZM13.6191 106.226H16.3428V108.95H13.6191V106.226ZM19.0665 106.226H21.7903V108.95H19.0665V106.226ZM32.6853 106.226H40.8565V108.95H32.6853V106.226ZM46.304 106.226H54.4753V108.95H46.304V106.226ZM59.9228 106.226H65.3702V108.95H59.9228V106.226ZM78.989 106.226H87.1602V108.95H78.989V106.226ZM92.6077 106.226H100.779V108.95H92.6077V106.226ZM103.503 106.226H106.226V108.95H103.503V106.226ZM111.674 106.226H117.121V108.95H111.674V106.226ZM122.569 106.226H128.016V108.95H122.569V106.226ZM136.188 106.226H138.911V108.95H136.188V106.226ZM141.635 106.226H144.359V108.95H141.635V106.226ZM147.083 106.226H149.806V108.95H147.083V106.226ZM152.53 106.226H155.254V108.95H152.53V106.226ZM157.978 106.226H160.701V108.95H157.978V106.226ZM166.149 106.226H174.32V108.95H166.149V106.226ZM177.044 106.226H185.215V108.95H177.044V106.226ZM196.11 106.226H198.834V108.95H196.11V106.226ZM201.558 106.226H204.281V108.95H201.558V106.226ZM207.005 106.226H215.176V108.95H207.005V106.226ZM0.000321637 108.95H2.72407V111.674H0.000321637V108.95ZM5.44782 108.95H8.17156V111.674H5.44782V108.95ZM13.6191 108.95H19.0665V111.674H13.6191V108.95ZM24.514 108.95H35.409V111.674H24.514V108.95ZM38.1328 108.95H40.8565V111.674H38.1328V108.95ZM49.0278 108.95H51.7515V111.674H49.0278V108.95ZM65.3702 108.95H68.094V111.674H65.3702V108.95ZM73.5415 108.95H76.2652V111.674H73.5415V108.95ZM87.1602 108.95H89.884V111.674H87.1602V108.95ZM108.95 108.95H117.121V111.674H108.95V108.95ZM119.845 108.95H128.016V111.674H119.845V108.95ZM133.464 108.95H138.911V111.674H133.464V108.95ZM141.635 108.95H144.359V111.674H141.635V108.95ZM147.083 108.95H149.806V111.674H147.083V108.95ZM152.53 108.95H155.254V111.674H152.53V108.95ZM157.978 108.95H163.425V111.674H157.978V108.95ZM168.873 108.95H171.596V111.674H168.873V108.95ZM174.32 108.95H179.768V111.674H174.32V108.95ZM185.215 108.95H198.834V111.674H185.215V108.95ZM204.281 108.95H209.729V111.674H204.281V108.95ZM212.453 108.95H215.176V111.674H212.453V108.95ZM217.9 108.95H220.624V111.674H217.9V108.95ZM0.000321637 111.674H16.3428V114.397H0.000321637V111.674ZM21.7903 111.674H24.514V114.397H21.7903V111.674ZM27.2378 111.674H35.409V114.397H27.2378V111.674ZM38.1328 111.674H43.5803V114.397H38.1328V111.674ZM51.7515 111.674H54.4753V114.397H51.7515V111.674ZM57.199 111.674H59.9228V114.397H57.199V111.674ZM68.094 111.674H73.5415V114.397H68.094V111.674ZM78.989 111.674H87.1602V114.397H78.989V111.674ZM89.884 111.674H92.6077V114.397H89.884V111.674ZM95.3315 111.674H98.0552V114.397H95.3315V111.674ZM106.226 111.674H108.95V114.397H106.226V111.674ZM111.674 111.674H122.569V114.397H111.674V111.674ZM130.74 111.674H138.911V114.397H130.74V111.674ZM141.635 111.674H147.083V114.397H141.635V111.674ZM149.806 111.674H152.53V114.397H149.806V111.674ZM168.873 111.674H171.596V114.397H168.873V111.674ZM179.768 111.674H182.491V114.397H179.768V111.674ZM187.939 111.674H190.663V114.397H187.939V111.674ZM217.9 111.674H220.624V114.397H217.9V111.674ZM0.000321637 114.397H2.72407V117.121H0.000321637V114.397ZM8.17156 114.397H13.6191V117.121H8.17156V114.397ZM16.3428 114.397H35.409V117.121H16.3428V114.397ZM40.8565 114.397H54.4753V117.121H40.8565V114.397ZM59.9228 114.397H65.3702V117.121H59.9228V114.397ZM68.094 114.397H70.8177V117.121H68.094V114.397ZM76.2652 114.397H78.989V117.121H76.2652V114.397ZM84.4365 114.397H87.1602V117.121H84.4365V114.397ZM89.884 114.397H103.503V117.121H89.884V114.397ZM111.674 114.397H119.845V117.121H111.674V114.397ZM133.464 114.397H141.635V117.121H133.464V114.397ZM144.359 114.397H147.083V117.121H144.359V114.397ZM149.806 114.397H152.53V117.121H149.806V114.397ZM157.978 114.397H163.425V117.121H157.978V114.397ZM171.596 114.397H174.32V117.121H171.596V114.397ZM177.044 114.397H179.768V117.121H177.044V114.397ZM182.491 114.397H185.215V117.121H182.491V114.397ZM190.663 114.397H193.386V117.121H190.663V114.397ZM196.11 114.397H220.624V117.121H196.11V114.397ZM0.000321637 117.121H2.72407V119.845H0.000321637V117.121ZM13.6191 117.121H16.3428V119.845H13.6191V117.121ZM19.0665 117.121H24.514V119.845H19.0665V117.121ZM27.2378 117.121H29.9615V119.845H27.2378V117.121ZM32.6853 117.121H46.304V119.845H32.6853V117.121ZM49.0278 117.121H51.7515V119.845H49.0278V117.121ZM54.4753 117.121H59.9228V119.845H54.4753V117.121ZM68.094 117.121H73.5415V119.845H68.094V117.121ZM76.2652 117.121H78.989V119.845H76.2652V117.121ZM87.1602 117.121H89.884V119.845H87.1602V117.121ZM95.3315 117.121H98.0552V119.845H95.3315V117.121ZM100.779 117.121H103.503V119.845H100.779V117.121ZM106.226 117.121H111.674V119.845H106.226V117.121ZM114.398 117.121H119.845V119.845H114.398V117.121ZM122.569 117.121H130.74V119.845H122.569V117.121ZM133.464 117.121H136.188V119.845H133.464V117.121ZM138.911 117.121H144.359V119.845H138.911V117.121ZM147.083 117.121H149.806V119.845H147.083V117.121ZM152.53 117.121H163.425V119.845H152.53V117.121ZM166.149 117.121H171.596V119.845H166.149V117.121ZM174.32 117.121H179.768V119.845H174.32V117.121ZM185.215 117.121H187.939V119.845H185.215V117.121ZM190.663 117.121H207.005V119.845H190.663V117.121ZM212.453 117.121H215.176V119.845H212.453V117.121ZM217.9 117.121H220.624V119.845H217.9V117.121ZM0.000321637 119.845H8.17156V122.569H0.000321637V119.845ZM13.6191 119.845H19.0665V122.569H13.6191V119.845ZM54.4753 119.845H62.6465V122.569H54.4753V119.845ZM65.3702 119.845H70.8177V122.569H65.3702V119.845ZM73.5415 119.845H76.2652V122.569H73.5415V119.845ZM81.7127 119.845H87.1602V122.569H81.7127V119.845ZM89.884 119.845H108.95V122.569H89.884V119.845ZM114.398 119.845H117.121V122.569H114.398V119.845ZM119.845 119.845H122.569V122.569H119.845V119.845ZM128.016 119.845H136.188V122.569H128.016V119.845ZM138.911 119.845H149.806V122.569H138.911V119.845ZM152.53 119.845H155.254V122.569H152.53V119.845ZM163.425 119.845H168.873V122.569H163.425V119.845ZM179.768 119.845H182.491V122.569H179.768V119.845ZM187.939 119.845H196.11V122.569H187.939V119.845ZM201.558 119.845H204.281V122.569H201.558V119.845ZM0.000321637 122.569H5.44782V125.292H0.000321637V122.569ZM13.6191 122.569H16.3428V125.292H13.6191V122.569ZM19.0665 122.569H27.2378V125.292H19.0665V122.569ZM29.9615 122.569H32.6853V125.292H29.9615V122.569ZM35.409 122.569H40.8565V125.292H35.409V122.569ZM43.5803 122.569H46.304V125.292H43.5803V122.569ZM51.7515 122.569H57.199V125.292H51.7515V122.569ZM62.6465 122.569H65.3702V125.292H62.6465V122.569ZM70.8177 122.569H73.5415V125.292H70.8177V122.569ZM76.2652 122.569H81.7127V125.292H76.2652V122.569ZM87.1602 122.569H89.884V125.292H87.1602V122.569ZM92.6077 122.569H100.779V125.292H92.6077V122.569ZM103.503 122.569H106.226V125.292H103.503V122.569ZM108.95 122.569H111.674V125.292H108.95V122.569ZM122.569 122.569H130.74V125.292H122.569V122.569ZM133.464 122.569H138.911V125.292H133.464V122.569ZM141.635 122.569H144.359V125.292H141.635V122.569ZM147.083 122.569H149.806V125.292H147.083V122.569ZM157.978 122.569H160.701V125.292H157.978V122.569ZM174.32 122.569H179.768V125.292H174.32V122.569ZM196.11 122.569H198.834V125.292H196.11V122.569ZM204.281 122.569H207.005V125.292H204.281V122.569ZM215.176 122.569H217.9V125.292H215.176V122.569ZM2.72407 125.292H5.44782V128.016H2.72407V125.292ZM8.17156 125.292H10.8953V128.016H8.17156V125.292ZM13.6191 125.292H21.7903V128.016H13.6191V125.292ZM24.514 125.292H32.6853V128.016H24.514V125.292ZM38.1328 125.292H46.304V128.016H38.1328V125.292ZM49.0278 125.292H51.7515V128.016H49.0278V125.292ZM59.9228 125.292H62.6465V128.016H59.9228V125.292ZM68.094 125.292H70.8177V128.016H68.094V125.292ZM73.5415 125.292H76.2652V128.016H73.5415V125.292ZM87.1602 125.292H92.6077V128.016H87.1602V125.292ZM95.3315 125.292H98.0552V128.016H95.3315V125.292ZM106.226 125.292H108.95V128.016H106.226V125.292ZM114.398 125.292H119.845V128.016H114.398V125.292ZM125.293 125.292H128.016V128.016H125.293V125.292ZM133.464 125.292H138.911V128.016H133.464V125.292ZM144.359 125.292H155.254V128.016H144.359V125.292ZM157.978 125.292H168.873V128.016H157.978V125.292ZM177.044 125.292H179.768V128.016H177.044V125.292ZM190.663 125.292H193.386V128.016H190.663V125.292ZM198.834 125.292H215.176V128.016H198.834V125.292ZM0.000321637 128.016H2.72407V130.74H0.000321637V128.016ZM5.44782 128.016H8.17156V130.74H5.44782V128.016ZM10.8953 128.016H13.6191V130.74H10.8953V128.016ZM19.0665 128.016H35.409V130.74H19.0665V128.016ZM38.1328 128.016H40.8565V130.74H38.1328V128.016ZM46.304 128.016H49.0278V130.74H46.304V128.016ZM51.7515 128.016H57.199V130.74H51.7515V128.016ZM59.9228 128.016H62.6465V130.74H59.9228V128.016ZM87.1602 128.016H98.0552V130.74H87.1602V128.016ZM103.503 128.016H114.398V130.74H103.503V128.016ZM125.293 128.016H128.016V130.74H125.293V128.016ZM130.74 128.016H133.464V130.74H130.74V128.016ZM136.188 128.016H138.911V130.74H136.188V128.016ZM147.083 128.016H149.806V130.74H147.083V128.016ZM155.254 128.016H157.978V130.74H155.254V128.016ZM168.873 128.016H171.596V130.74H168.873V128.016ZM174.32 128.016H177.044V130.74H174.32V128.016ZM179.768 128.016H182.491V130.74H179.768V128.016ZM185.215 128.016H187.939V130.74H185.215V128.016ZM196.11 128.016H198.834V130.74H196.11V128.016ZM201.558 128.016H207.005V130.74H201.558V128.016ZM215.176 128.016H217.9V130.74H215.176V128.016ZM0.000321637 130.74H2.72407V133.464H0.000321637V130.74ZM5.44782 130.74H24.514V133.464H5.44782V130.74ZM27.2378 130.74H35.409V133.464H27.2378V130.74ZM38.1328 130.74H40.8565V133.464H38.1328V130.74ZM57.199 130.74H59.9228V133.464H57.199V130.74ZM62.6465 130.74H95.3315V133.464H62.6465V130.74ZM98.0552 130.74H100.779V133.464H98.0552V130.74ZM106.226 130.74H114.398V133.464H106.226V130.74ZM125.293 130.74H149.806V133.464H125.293V130.74ZM166.149 130.74H171.596V133.464H166.149V130.74ZM174.32 130.74H177.044V133.464H174.32V130.74ZM179.768 130.74H182.491V133.464H179.768V130.74ZM187.939 130.74H209.729V133.464H187.939V130.74ZM215.176 130.74H220.624V133.464H215.176V130.74ZM0.000321637 133.464H5.44782V136.187H0.000321637V133.464ZM8.17156 133.464H13.6191V136.187H8.17156V133.464ZM21.7903 133.464H43.5803V136.187H21.7903V133.464ZM46.304 133.464H51.7515V136.187H46.304V133.464ZM54.4753 133.464H62.6465V136.187H54.4753V133.464ZM65.3702 133.464H68.094V136.187H65.3702V133.464ZM76.2652 133.464H78.989V136.187H76.2652V133.464ZM81.7127 133.464H89.884V136.187H81.7127V133.464ZM92.6077 133.464H95.3315V136.187H92.6077V133.464ZM114.398 133.464H117.121V136.187H114.398V133.464ZM125.293 133.464H128.016V136.187H125.293V133.464ZM130.74 133.464H133.464V136.187H130.74V133.464ZM141.635 133.464H144.359V136.187H141.635V133.464ZM147.083 133.464H149.806V136.187H147.083V133.464ZM155.254 133.464H160.701V136.187H155.254V133.464ZM166.149 133.464H177.044V136.187H166.149V133.464ZM185.215 133.464H190.663V136.187H185.215V133.464ZM196.11 133.464H198.834V136.187H196.11V133.464ZM207.005 133.464H212.453V136.187H207.005V133.464ZM217.9 133.464H220.624V136.187H217.9V133.464ZM0.000321637 136.187H8.17156V138.911H0.000321637V136.187ZM10.8953 136.187H13.6191V138.911H10.8953V136.187ZM16.3428 136.187H19.0665V138.911H16.3428V136.187ZM21.7903 136.187H24.514V138.911H21.7903V136.187ZM27.2378 136.187H35.409V138.911H27.2378V136.187ZM40.8565 136.187H43.5803V138.911H40.8565V136.187ZM51.7515 136.187H57.199V138.911H51.7515V136.187ZM59.9228 136.187H68.094V138.911H59.9228V136.187ZM70.8177 136.187H73.5415V138.911H70.8177V136.187ZM76.2652 136.187H78.989V138.911H76.2652V136.187ZM87.1602 136.187H92.6077V138.911H87.1602V136.187ZM98.0552 136.187H103.503V138.911H98.0552V136.187ZM111.674 136.187H117.121V138.911H111.674V136.187ZM119.845 136.187H122.569V138.911H119.845V136.187ZM130.74 136.187H133.464V138.911H130.74V136.187ZM136.188 136.187H138.911V138.911H136.188V136.187ZM141.635 136.187H152.53V138.911H141.635V136.187ZM155.254 136.187H157.978V138.911H155.254V136.187ZM160.701 136.187H163.425V138.911H160.701V136.187ZM166.149 136.187H168.873V138.911H166.149V136.187ZM174.32 136.187H177.044V138.911H174.32V136.187ZM179.768 136.187H185.215V138.911H179.768V136.187ZM190.663 136.187H198.834V138.911H190.663V136.187ZM201.558 136.187H204.281V138.911H201.558V136.187ZM207.005 136.187H209.729V138.911H207.005V136.187ZM212.453 136.187H220.624V138.911H212.453V136.187ZM2.72407 138.911H5.44782V141.635H2.72407V138.911ZM10.8953 138.911H13.6191V141.635H10.8953V138.911ZM21.7903 138.911H24.514V141.635H21.7903V138.911ZM29.9615 138.911H40.8565V141.635H29.9615V138.911ZM59.9228 138.911H68.094V141.635H59.9228V138.911ZM76.2652 138.911H78.989V141.635H76.2652V138.911ZM87.1602 138.911H98.0552V141.635H87.1602V138.911ZM111.674 138.911H117.121V141.635H111.674V138.911ZM125.293 138.911H133.464V141.635H125.293V138.911ZM141.635 138.911H144.359V141.635H141.635V138.911ZM147.083 138.911H149.806V141.635H147.083V138.911ZM152.53 138.911H160.701V141.635H152.53V138.911ZM163.425 138.911H174.32V141.635H163.425V138.911ZM185.215 138.911H187.939V141.635H185.215V138.911ZM190.663 138.911H193.386V141.635H190.663V138.911ZM196.11 138.911H198.834V141.635H196.11V138.911ZM207.005 138.911H209.729V141.635H207.005V138.911ZM215.176 138.911H220.624V141.635H215.176V138.911ZM5.44782 141.635H8.17156V144.359H5.44782V141.635ZM10.8953 141.635H24.514V144.359H10.8953V141.635ZM29.9615 141.635H38.1328V144.359H29.9615V141.635ZM46.304 141.635H57.199V144.359H46.304V141.635ZM62.6465 141.635H78.989V144.359H62.6465V141.635ZM81.7127 141.635H106.226V144.359H81.7127V141.635ZM111.674 141.635H147.083V144.359H111.674V141.635ZM152.53 141.635H155.254V144.359H152.53V141.635ZM160.701 141.635H171.596V144.359H160.701V141.635ZM174.32 141.635H193.386V144.359H174.32V141.635ZM196.11 141.635H209.729V144.359H196.11V141.635ZM215.176 141.635H220.624V144.359H215.176V141.635ZM0.000321637 144.359H2.72407V147.082H0.000321637V144.359ZM5.44782 144.359H8.17156V147.082H5.44782V144.359ZM21.7903 144.359H27.2378V147.082H21.7903V144.359ZM29.9615 144.359H32.6853V147.082H29.9615V144.359ZM35.409 144.359H38.1328V147.082H35.409V144.359ZM49.0278 144.359H59.9228V147.082H49.0278V144.359ZM62.6465 144.359H68.094V147.082H62.6465V144.359ZM73.5415 144.359H76.2652V147.082H73.5415V144.359ZM81.7127 144.359H84.4365V147.082H81.7127V144.359ZM87.1602 144.359H89.884V147.082H87.1602V144.359ZM92.6077 144.359H95.3315V147.082H92.6077V144.359ZM100.779 144.359H103.503V147.082H100.779V144.359ZM108.95 144.359H117.121V147.082H108.95V144.359ZM119.845 144.359H125.293V147.082H119.845V144.359ZM128.016 144.359H130.74V147.082H128.016V144.359ZM136.188 144.359H144.359V147.082H136.188V144.359ZM157.978 144.359H160.701V147.082H157.978V144.359ZM166.149 144.359H168.873V147.082H166.149V144.359ZM177.044 144.359H179.768V147.082H177.044V144.359ZM187.939 144.359H190.663V147.082H187.939V144.359ZM193.386 144.359H196.11V147.082H193.386V144.359ZM198.834 144.359H204.281V147.082H198.834V144.359ZM207.005 144.359H209.729V147.082H207.005V144.359ZM215.176 144.359H217.9V147.082H215.176V144.359ZM0.000321637 147.082H13.6191V149.806H0.000321637V147.082ZM16.3428 147.082H19.0665V149.806H16.3428V147.082ZM21.7903 147.082H24.514V149.806H21.7903V147.082ZM35.409 147.082H38.1328V149.806H35.409V147.082ZM40.8565 147.082H51.7515V149.806H40.8565V147.082ZM59.9228 147.082H70.8177V149.806H59.9228V147.082ZM73.5415 147.082H84.4365V149.806H73.5415V147.082ZM89.884 147.082H92.6077V149.806H89.884V147.082ZM95.3315 147.082H98.0552V149.806H95.3315V147.082ZM100.779 147.082H117.121V149.806H100.779V147.082ZM119.845 147.082H122.569V149.806H119.845V147.082ZM128.016 147.082H138.911V149.806H128.016V147.082ZM144.359 147.082H152.53V149.806H144.359V147.082ZM157.978 147.082H163.425V149.806H157.978V147.082ZM166.149 147.082H168.873V149.806H166.149V147.082ZM171.596 147.082H177.044V149.806H171.596V147.082ZM179.768 147.082H185.215V149.806H179.768V147.082ZM190.663 147.082H193.386V149.806H190.663V147.082ZM196.11 147.082H198.834V149.806H196.11V147.082ZM204.281 147.082H209.729V149.806H204.281V147.082ZM212.453 147.082H215.176V149.806H212.453V147.082ZM2.72407 149.806H8.17156V152.53H2.72407V149.806ZM10.8953 149.806H13.6191V152.53H10.8953V149.806ZM19.0665 149.806H29.9615V152.53H19.0665V149.806ZM35.409 149.806H38.1328V152.53H35.409V149.806ZM43.5803 149.806H51.7515V152.53H43.5803V149.806ZM68.094 149.806H70.8177V152.53H68.094V149.806ZM73.5415 149.806H78.989V152.53H73.5415V149.806ZM81.7127 149.806H84.4365V152.53H81.7127V149.806ZM87.1602 149.806H92.6077V152.53H87.1602V149.806ZM95.3315 149.806H103.503V152.53H95.3315V149.806ZM106.226 149.806H108.95V152.53H106.226V149.806ZM111.674 149.806H119.845V152.53H111.674V149.806ZM133.464 149.806H141.635V152.53H133.464V149.806ZM149.806 149.806H152.53V152.53H149.806V149.806ZM163.425 149.806H171.596V152.53H163.425V149.806ZM174.32 149.806H182.491V152.53H174.32V149.806ZM185.215 149.806H187.939V152.53H185.215V149.806ZM190.663 149.806H193.386V152.53H190.663V149.806ZM201.558 149.806H204.281V152.53H201.558V149.806ZM212.453 149.806H220.624V152.53H212.453V149.806ZM10.8953 152.53H13.6191V155.254H10.8953V152.53ZM16.3428 152.53H21.7903V155.254H16.3428V152.53ZM24.514 152.53H43.5803V155.254H24.514V152.53ZM49.0278 152.53H51.7515V155.254H49.0278V152.53ZM54.4753 152.53H57.199V155.254H54.4753V152.53ZM65.3702 152.53H70.8177V155.254H65.3702V152.53ZM78.989 152.53H84.4365V155.254H78.989V152.53ZM89.884 152.53H95.3315V155.254H89.884V152.53ZM98.0552 152.53H103.503V155.254H98.0552V152.53ZM119.845 152.53H122.569V155.254H119.845V152.53ZM125.293 152.53H128.016V155.254H125.293V152.53ZM130.74 152.53H133.464V155.254H130.74V152.53ZM136.188 152.53H141.635V155.254H136.188V152.53ZM144.359 152.53H147.083V155.254H144.359V152.53ZM149.806 152.53H166.149V155.254H149.806V152.53ZM171.596 152.53H177.044V155.254H171.596V152.53ZM179.768 152.53H182.491V155.254H179.768V152.53ZM187.939 152.53H196.11V155.254H187.939V152.53ZM198.834 152.53H204.281V155.254H198.834V152.53ZM207.005 152.53H215.176V155.254H207.005V152.53ZM2.72407 155.254H5.44782V157.977H2.72407V155.254ZM21.7903 155.254H27.2378V157.977H21.7903V155.254ZM35.409 155.254H38.1328V157.977H35.409V155.254ZM46.304 155.254H49.0278V157.977H46.304V155.254ZM51.7515 155.254H54.4753V157.977H51.7515V155.254ZM59.9228 155.254H62.6465V157.977H59.9228V155.254ZM95.3315 155.254H106.226V157.977H95.3315V155.254ZM108.95 155.254H111.674V157.977H108.95V155.254ZM122.569 155.254H125.293V157.977H122.569V155.254ZM128.016 155.254H136.188V157.977H128.016V155.254ZM138.911 155.254H147.083V157.977H138.911V155.254ZM149.806 155.254H152.53V157.977H149.806V155.254ZM155.254 155.254H157.978V157.977H155.254V155.254ZM163.425 155.254H168.873V157.977H163.425V155.254ZM171.596 155.254H179.768V157.977H171.596V155.254ZM185.215 155.254H196.11V157.977H185.215V155.254ZM198.834 155.254H220.624V157.977H198.834V155.254ZM0.000321637 157.977H2.72407V160.701H0.000321637V157.977ZM5.44782 157.977H10.8953V160.701H5.44782V157.977ZM16.3428 157.977H24.514V160.701H16.3428V157.977ZM27.2378 157.977H29.9615V160.701H27.2378V157.977ZM32.6853 157.977H35.409V160.701H32.6853V157.977ZM38.1328 157.977H43.5803V160.701H38.1328V157.977ZM46.304 157.977H57.199V160.701H46.304V157.977ZM65.3702 157.977H68.094V160.701H65.3702V157.977ZM70.8177 157.977H73.5415V160.701H70.8177V157.977ZM76.2652 157.977H81.7127V160.701H76.2652V157.977ZM84.4365 157.977H95.3315V160.701H84.4365V157.977ZM100.779 157.977H108.95V160.701H100.779V157.977ZM111.674 157.977H119.845V160.701H111.674V157.977ZM125.293 157.977H130.74V160.701H125.293V157.977ZM136.188 157.977H152.53V160.701H136.188V157.977ZM157.978 157.977H160.701V160.701H157.978V157.977ZM163.425 157.977H168.873V160.701H163.425V157.977ZM171.596 157.977H174.32V160.701H171.596V157.977ZM177.044 157.977H179.768V160.701H177.044V157.977ZM185.215 157.977H190.663V160.701H185.215V157.977ZM196.11 157.977H209.729V160.701H196.11V157.977ZM212.453 157.977H217.9V160.701H212.453V157.977ZM0.000321637 160.701H2.72407V163.425H0.000321637V160.701ZM5.44782 160.701H16.3428V163.425H5.44782V160.701ZM19.0665 160.701H21.7903V163.425H19.0665V160.701ZM24.514 160.701H29.9615V163.425H24.514V160.701ZM38.1328 160.701H43.5803V163.425H38.1328V160.701ZM49.0278 160.701H51.7515V163.425H49.0278V160.701ZM54.4753 160.701H65.3702V163.425H54.4753V160.701ZM68.094 160.701H78.989V163.425H68.094V160.701ZM81.7127 160.701H84.4365V163.425H81.7127V160.701ZM87.1602 160.701H92.6077V163.425H87.1602V160.701ZM95.3315 160.701H98.0552V163.425H95.3315V160.701ZM103.503 160.701H106.226V163.425H103.503V160.701ZM108.95 160.701H114.398V163.425H108.95V160.701ZM125.293 160.701H128.016V163.425H125.293V160.701ZM130.74 160.701H133.464V163.425H130.74V160.701ZM136.188 160.701H144.359V163.425H136.188V160.701ZM149.806 160.701H152.53V163.425H149.806V160.701ZM157.978 160.701H160.701V163.425H157.978V160.701ZM166.149 160.701H168.873V163.425H166.149V160.701ZM171.596 160.701H174.32V163.425H171.596V160.701ZM177.044 160.701H182.491V163.425H177.044V160.701ZM185.215 160.701H187.939V163.425H185.215V160.701ZM190.663 160.701H193.386V163.425H190.663V160.701ZM204.281 160.701H215.176V163.425H204.281V160.701ZM5.44782 163.425H8.17156V166.149H5.44782V163.425ZM10.8953 163.425H19.0665V166.149H10.8953V163.425ZM24.514 163.425H27.2378V166.149H24.514V163.425ZM35.409 163.425H38.1328V166.149H35.409V163.425ZM46.304 163.425H51.7515V166.149H46.304V163.425ZM59.9228 163.425H68.094V166.149H59.9228V163.425ZM76.2652 163.425H81.7127V166.149H76.2652V163.425ZM87.1602 163.425H92.6077V166.149H87.1602V163.425ZM98.0552 163.425H106.226V166.149H98.0552V163.425ZM108.95 163.425H122.569V166.149H108.95V163.425ZM128.016 163.425H141.635V166.149H128.016V163.425ZM144.359 163.425H147.083V166.149H144.359V163.425ZM149.806 163.425H160.701V166.149H149.806V163.425ZM171.596 163.425H177.044V166.149H171.596V163.425ZM179.768 163.425H182.491V166.149H179.768V163.425ZM185.215 163.425H196.11V166.149H185.215V163.425ZM198.834 163.425H201.558V166.149H198.834V163.425ZM204.281 163.425H209.729V166.149H204.281V163.425ZM212.453 163.425H220.624V166.149H212.453V163.425ZM0.000321637 166.149H2.72407V168.872H0.000321637V166.149ZM5.44782 166.149H8.17156V168.872H5.44782V166.149ZM13.6191 166.149H16.3428V168.872H13.6191V166.149ZM19.0665 166.149H24.514V168.872H19.0665V166.149ZM32.6853 166.149H40.8565V168.872H32.6853V166.149ZM46.304 166.149H57.199V168.872H46.304V166.149ZM62.6465 166.149H65.3702V168.872H62.6465V166.149ZM70.8177 166.149H73.5415V168.872H70.8177V166.149ZM76.2652 166.149H81.7127V168.872H76.2652V166.149ZM87.1602 166.149H89.884V168.872H87.1602V166.149ZM92.6077 166.149H98.0552V168.872H92.6077V166.149ZM100.779 166.149H106.226V168.872H100.779V166.149ZM111.674 166.149H117.121V168.872H111.674V166.149ZM125.293 166.149H128.016V168.872H125.293V166.149ZM130.74 166.149H133.464V168.872H130.74V166.149ZM147.083 166.149H149.806V168.872H147.083V166.149ZM155.254 166.149H157.978V168.872H155.254V166.149ZM166.149 166.149H168.873V168.872H166.149V166.149ZM171.596 166.149H179.768V168.872H171.596V166.149ZM190.663 166.149H193.386V168.872H190.663V166.149ZM196.11 166.149H198.834V168.872H196.11V166.149ZM201.558 166.149H204.281V168.872H201.558V166.149ZM207.005 166.149H209.729V168.872H207.005V166.149ZM215.176 166.149H217.9V168.872H215.176V166.149ZM0.000321637 168.872H8.17156V171.596H0.000321637V168.872ZM10.8953 168.872H13.6191V171.596H10.8953V168.872ZM16.3428 168.872H24.514V171.596H16.3428V168.872ZM27.2378 168.872H29.9615V171.596H27.2378V168.872ZM32.6853 168.872H35.409V171.596H32.6853V168.872ZM38.1328 168.872H40.8565V171.596H38.1328V168.872ZM43.5803 168.872H49.0278V171.596H43.5803V168.872ZM51.7515 168.872H54.4753V171.596H51.7515V168.872ZM62.6465 168.872H68.094V171.596H62.6465V168.872ZM73.5415 168.872H76.2652V171.596H73.5415V168.872ZM78.989 168.872H81.7127V171.596H78.989V168.872ZM87.1602 168.872H89.884V171.596H87.1602V168.872ZM92.6077 168.872H103.503V171.596H92.6077V168.872ZM106.226 168.872H108.95V171.596H106.226V168.872ZM114.398 168.872H117.121V171.596H114.398V168.872ZM122.569 168.872H128.016V171.596H122.569V168.872ZM136.188 168.872H138.911V171.596H136.188V168.872ZM149.806 168.872H152.53V171.596H149.806V168.872ZM157.978 168.872H163.425V171.596H157.978V168.872ZM166.149 168.872H168.873V171.596H166.149V168.872ZM171.596 168.872H174.32V171.596H171.596V168.872ZM177.044 168.872H179.768V171.596H177.044V168.872ZM182.491 168.872H185.215V171.596H182.491V168.872ZM187.939 168.872H193.386V171.596H187.939V168.872ZM198.834 168.872H204.281V171.596H198.834V168.872ZM207.005 168.872H209.729V171.596H207.005V168.872ZM212.453 168.872H215.176V171.596H212.453V168.872ZM0.000321637 171.596H5.44782V174.32H0.000321637V171.596ZM10.8953 171.596H16.3428V174.32H10.8953V171.596ZM19.0665 171.596H21.7903V174.32H19.0665V171.596ZM24.514 171.596H27.2378V174.32H24.514V171.596ZM32.6853 171.596H38.1328V174.32H32.6853V171.596ZM40.8565 171.596H46.304V174.32H40.8565V171.596ZM49.0278 171.596H59.9228V174.32H49.0278V171.596ZM65.3702 171.596H73.5415V174.32H65.3702V171.596ZM76.2652 171.596H78.989V174.32H76.2652V171.596ZM84.4365 171.596H89.884V174.32H84.4365V171.596ZM95.3315 171.596H100.779V174.32H95.3315V171.596ZM103.503 171.596H106.226V174.32H103.503V171.596ZM108.95 171.596H111.674V174.32H108.95V171.596ZM117.121 171.596H125.293V174.32H117.121V171.596ZM128.016 171.596H133.464V174.32H128.016V171.596ZM136.188 171.596H138.911V174.32H136.188V171.596ZM141.635 171.596H147.083V174.32H141.635V171.596ZM149.806 171.596H152.53V174.32H149.806V171.596ZM157.978 171.596H160.701V174.32H157.978V171.596ZM163.425 171.596H166.149V174.32H163.425V171.596ZM171.596 171.596H174.32V174.32H171.596V171.596ZM177.044 171.596H182.491V174.32H177.044V171.596ZM185.215 171.596H196.11V174.32H185.215V171.596ZM198.834 171.596H201.558V174.32H198.834V171.596ZM215.176 171.596H220.624V174.32H215.176V171.596ZM10.8953 174.32H27.2378V177.044H10.8953V174.32ZM29.9615 174.32H35.409V177.044H29.9615V174.32ZM38.1328 174.32H46.304V177.044H38.1328V174.32ZM49.0278 174.32H51.7515V177.044H49.0278V174.32ZM57.199 174.32H68.094V177.044H57.199V174.32ZM73.5415 174.32H81.7127V177.044H73.5415V174.32ZM89.884 174.32H92.6077V177.044H89.884V174.32ZM98.0552 174.32H100.779V177.044H98.0552V174.32ZM111.674 174.32H114.398V177.044H111.674V174.32ZM119.845 174.32H122.569V177.044H119.845V174.32ZM133.464 174.32H141.635V177.044H133.464V174.32ZM147.083 174.32H160.701V177.044H147.083V174.32ZM163.425 174.32H174.32V177.044H163.425V174.32ZM177.044 174.32H182.491V177.044H177.044V174.32ZM185.215 174.32H187.939V177.044H185.215V174.32ZM196.11 174.32H201.558V177.044H196.11V174.32ZM204.281 174.32H207.005V177.044H204.281V174.32ZM212.453 174.32H220.624V177.044H212.453V174.32ZM8.17156 177.044H10.8953V179.767H8.17156V177.044ZM13.6191 177.044H16.3428V179.767H13.6191V177.044ZM21.7903 177.044H24.514V179.767H21.7903V177.044ZM29.9615 177.044H38.1328V179.767H29.9615V177.044ZM40.8565 177.044H46.304V179.767H40.8565V177.044ZM49.0278 177.044H54.4753V179.767H49.0278V177.044ZM59.9228 177.044H65.3702V179.767H59.9228V177.044ZM68.094 177.044H81.7127V179.767H68.094V177.044ZM87.1602 177.044H98.0552V179.767H87.1602V177.044ZM100.779 177.044H103.503V179.767H100.779V177.044ZM106.226 177.044H108.95V179.767H106.226V177.044ZM114.398 177.044H117.121V179.767H114.398V177.044ZM119.845 177.044H122.569V179.767H119.845V177.044ZM125.293 177.044H128.016V179.767H125.293V177.044ZM133.464 177.044H136.188V179.767H133.464V177.044ZM141.635 177.044H152.53V179.767H141.635V177.044ZM155.254 177.044H166.149V179.767H155.254V177.044ZM168.873 177.044H171.596V179.767H168.873V177.044ZM179.768 177.044H187.939V179.767H179.768V177.044ZM196.11 177.044H201.558V179.767H196.11V177.044ZM209.729 177.044H212.453V179.767H209.729V177.044ZM215.176 177.044H220.624V179.767H215.176V177.044ZM0.000321637 179.767H5.44782V182.491H0.000321637V179.767ZM8.17156 179.767H10.8953V182.491H8.17156V179.767ZM13.6191 179.767H24.514V182.491H13.6191V179.767ZM27.2378 179.767H29.9615V182.491H27.2378V179.767ZM38.1328 179.767H40.8565V182.491H38.1328V179.767ZM43.5803 179.767H46.304V182.491H43.5803V179.767ZM59.9228 179.767H62.6465V182.491H59.9228V179.767ZM65.3702 179.767H92.6077V182.491H65.3702V179.767ZM100.779 179.767H103.503V182.491H100.779V179.767ZM106.226 179.767H108.95V182.491H106.226V179.767ZM114.398 179.767H125.293V182.491H114.398V179.767ZM128.016 179.767H133.464V182.491H128.016V179.767ZM136.188 179.767H152.53V182.491H136.188V179.767ZM155.254 179.767H157.978V182.491H155.254V179.767ZM168.873 179.767H177.044V182.491H168.873V179.767ZM179.768 179.767H185.215V182.491H179.768V179.767ZM190.663 179.767H198.834V182.491H190.663V179.767ZM201.558 179.767H207.005V182.491H201.558V179.767ZM209.729 179.767H220.624V182.491H209.729V179.767ZM0.000321637 182.491H10.8953V185.215H0.000321637V182.491ZM13.6191 182.491H16.3428V185.215H13.6191V182.491ZM24.514 182.491H27.2378V185.215H24.514V182.491ZM35.409 182.491H38.1328V185.215H35.409V182.491ZM40.8565 182.491H49.0278V185.215H40.8565V182.491ZM54.4753 182.491H57.199V185.215H54.4753V182.491ZM68.094 182.491H73.5415V185.215H68.094V182.491ZM78.989 182.491H87.1602V185.215H78.989V182.491ZM92.6077 182.491H95.3315V185.215H92.6077V182.491ZM100.779 182.491H114.398V185.215H100.779V182.491ZM117.121 182.491H125.293V185.215H117.121V182.491ZM128.016 182.491H130.74V185.215H128.016V182.491ZM136.188 182.491H138.911V185.215H136.188V182.491ZM144.359 182.491H149.806V185.215H144.359V182.491ZM157.978 182.491H160.701V185.215H157.978V182.491ZM168.873 182.491H171.596V185.215H168.873V182.491ZM174.32 182.491H179.768V185.215H174.32V182.491ZM185.215 182.491H187.939V185.215H185.215V182.491ZM190.663 182.491H196.11V185.215H190.663V182.491ZM198.834 182.491H201.558V185.215H198.834V182.491ZM204.281 182.491H212.453V185.215H204.281V182.491ZM217.9 182.491H220.624V185.215H217.9V182.491ZM0.000321637 185.215H2.72407V187.939H0.000321637V185.215ZM16.3428 185.215H19.0665V187.939H16.3428V185.215ZM24.514 185.215H29.9615V187.939H24.514V185.215ZM38.1328 185.215H40.8565V187.939H38.1328V185.215ZM46.304 185.215H51.7515V187.939H46.304V185.215ZM59.9228 185.215H62.6465V187.939H59.9228V185.215ZM65.3702 185.215H73.5415V187.939H65.3702V185.215ZM78.989 185.215H81.7127V187.939H78.989V185.215ZM87.1602 185.215H89.884V187.939H87.1602V185.215ZM100.779 185.215H111.674V187.939H100.779V185.215ZM114.398 185.215H117.121V187.939H114.398V185.215ZM122.569 185.215H128.016V187.939H122.569V185.215ZM130.74 185.215H138.911V187.939H130.74V185.215ZM149.806 185.215H152.53V187.939H149.806V185.215ZM155.254 185.215H160.701V187.939H155.254V185.215ZM166.149 185.215H168.873V187.939H166.149V185.215ZM174.32 185.215H177.044V187.939H174.32V185.215ZM179.768 185.215H182.491V187.939H179.768V185.215ZM185.215 185.215H196.11V187.939H185.215V185.215ZM209.729 185.215H215.176V187.939H209.729V185.215ZM217.9 185.215H220.624V187.939H217.9V185.215ZM8.17156 187.939H10.8953V190.662H8.17156V187.939ZM13.6191 187.939H16.3428V190.662H13.6191V187.939ZM19.0665 187.939H21.7903V190.662H19.0665V187.939ZM27.2378 187.939H32.6853V190.662H27.2378V187.939ZM38.1328 187.939H43.5803V190.662H38.1328V187.939ZM46.304 187.939H49.0278V190.662H46.304V187.939ZM51.7515 187.939H54.4753V190.662H51.7515V187.939ZM59.9228 187.939H68.094V190.662H59.9228V187.939ZM70.8177 187.939H84.4365V190.662H70.8177V187.939ZM87.1602 187.939H89.884V190.662H87.1602V187.939ZM92.6077 187.939H95.3315V190.662H92.6077V187.939ZM98.0552 187.939H111.674V190.662H98.0552V187.939ZM117.121 187.939H133.464V190.662H117.121V187.939ZM136.188 187.939H138.911V190.662H136.188V187.939ZM147.083 187.939H149.806V190.662H147.083V187.939ZM155.254 187.939H157.978V190.662H155.254V187.939ZM168.873 187.939H182.491V190.662H168.873V187.939ZM193.386 187.939H196.11V190.662H193.386V187.939ZM198.834 187.939H201.558V190.662H198.834V187.939ZM207.005 187.939H209.729V190.662H207.005V187.939ZM212.453 187.939H220.624V190.662H212.453V187.939ZM2.72407 190.662H10.8953V193.386H2.72407V190.662ZM16.3428 190.662H21.7903V193.386H16.3428V190.662ZM27.2378 190.662H32.6853V193.386H27.2378V190.662ZM43.5803 190.662H51.7515V193.386H43.5803V190.662ZM54.4753 190.662H59.9228V193.386H54.4753V190.662ZM70.8177 190.662H84.4365V193.386H70.8177V190.662ZM89.884 190.662H92.6077V193.386H89.884V190.662ZM95.3315 190.662H100.779V193.386H95.3315V190.662ZM103.503 190.662H106.226V193.386H103.503V190.662ZM114.398 190.662H122.569V193.386H114.398V190.662ZM133.464 190.662H138.911V193.386H133.464V190.662ZM141.635 190.662H147.083V193.386H141.635V190.662ZM149.806 190.662H152.53V193.386H149.806V190.662ZM157.978 190.662H163.425V193.386H157.978V190.662ZM168.873 190.662H171.596V193.386H168.873V190.662ZM177.044 190.662H179.768V193.386H177.044V190.662ZM182.491 190.662H185.215V193.386H182.491V190.662ZM190.663 190.662H209.729V193.386H190.663V190.662ZM212.453 190.662H220.624V193.386H212.453V190.662ZM2.72407 193.386H5.44782V196.11H2.72407V193.386ZM13.6191 193.386H16.3428V196.11H13.6191V193.386ZM21.7903 193.386H24.514V196.11H21.7903V193.386ZM27.2378 193.386H29.9615V196.11H27.2378V193.386ZM32.6853 193.386H35.409V196.11H32.6853V193.386ZM38.1328 193.386H40.8565V196.11H38.1328V193.386ZM51.7515 193.386H57.199V196.11H51.7515V193.386ZM59.9228 193.386H65.3702V196.11H59.9228V193.386ZM70.8177 193.386H73.5415V196.11H70.8177V193.386ZM76.2652 193.386H81.7127V196.11H76.2652V193.386ZM87.1602 193.386H89.884V196.11H87.1602V193.386ZM92.6077 193.386H95.3315V196.11H92.6077V193.386ZM103.503 193.386H119.845V196.11H103.503V193.386ZM133.464 193.386H141.635V196.11H133.464V193.386ZM147.083 193.386H149.806V196.11H147.083V193.386ZM157.978 193.386H160.701V196.11H157.978V193.386ZM166.149 193.386H174.32V196.11H166.149V193.386ZM177.044 193.386H182.491V196.11H177.044V193.386ZM185.215 193.386H187.939V196.11H185.215V193.386ZM190.663 193.386H193.386V196.11H190.663V193.386ZM196.11 193.386H201.558V196.11H196.11V193.386ZM215.176 193.386H217.9V196.11H215.176V193.386ZM2.72407 196.11H10.8953V198.834H2.72407V196.11ZM16.3428 196.11H27.2378V198.834H16.3428V196.11ZM29.9615 196.11H32.6853V198.834H29.9615V196.11ZM35.409 196.11H38.1328V198.834H35.409V196.11ZM40.8565 196.11H51.7515V198.834H40.8565V196.11ZM62.6465 196.11H81.7127V198.834H62.6465V196.11ZM89.884 196.11H92.6077V198.834H89.884V196.11ZM98.0552 196.11H100.779V198.834H98.0552V196.11ZM103.503 196.11H106.226V198.834H103.503V196.11ZM111.674 196.11H122.569V198.834H111.674V196.11ZM125.293 196.11H128.016V198.834H125.293V196.11ZM130.74 196.11H152.53V198.834H130.74V196.11ZM155.254 196.11H157.978V198.834H155.254V196.11ZM168.873 196.11H171.596V198.834H168.873V196.11ZM174.32 196.11H177.044V198.834H174.32V196.11ZM179.768 196.11H182.491V198.834H179.768V196.11ZM185.215 196.11H209.729V198.834H185.215V196.11ZM215.176 196.11H220.624V198.834H215.176V196.11ZM21.7903 198.834H29.9615V201.557H21.7903V198.834ZM35.409 198.834H38.1328V201.557H35.409V198.834ZM40.8565 198.834H46.304V201.557H40.8565V198.834ZM49.0278 198.834H51.7515V201.557H49.0278V198.834ZM57.199 198.834H59.9228V201.557H57.199V198.834ZM65.3702 198.834H68.094V201.557H65.3702V198.834ZM76.2652 198.834H78.989V201.557H76.2652V198.834ZM89.884 198.834H92.6077V201.557H89.884V198.834ZM95.3315 198.834H100.779V201.557H95.3315V198.834ZM103.503 198.834H108.95V201.557H103.503V198.834ZM114.398 198.834H119.845V201.557H114.398V198.834ZM122.569 198.834H125.293V201.557H122.569V198.834ZM128.016 198.834H133.464V201.557H128.016V198.834ZM141.635 198.834H149.806V201.557H141.635V198.834ZM157.978 198.834H160.701V201.557H157.978V198.834ZM177.044 198.834H179.768V201.557H177.044V198.834ZM182.491 198.834H187.939V201.557H182.491V198.834ZM190.663 198.834H198.834V201.557H190.663V198.834ZM207.005 198.834H209.729V201.557H207.005V198.834ZM215.176 198.834H220.624V201.557H215.176V198.834ZM0.000321637 201.557H19.0665V204.281H0.000321637V201.557ZM21.7903 201.557H24.514V204.281H21.7903V201.557ZM27.2378 201.557H32.6853V204.281H27.2378V201.557ZM38.1328 201.557H46.304V204.281H38.1328V201.557ZM54.4753 201.557H57.199V204.281H54.4753V201.557ZM59.9228 201.557H62.6465V204.281H59.9228V201.557ZM65.3702 201.557H68.094V204.281H65.3702V201.557ZM70.8177 201.557H73.5415V204.281H70.8177V201.557ZM76.2652 201.557H78.989V204.281H76.2652V201.557ZM87.1602 201.557H92.6077V204.281H87.1602V201.557ZM106.226 201.557H108.95V204.281H106.226V201.557ZM111.674 201.557H119.845V204.281H111.674V201.557ZM125.293 201.557H128.016V204.281H125.293V201.557ZM130.74 201.557H133.464V204.281H130.74V201.557ZM136.188 201.557H138.911V204.281H136.188V201.557ZM141.635 201.557H152.53V204.281H141.635V201.557ZM155.254 201.557H157.978V204.281H155.254V201.557ZM160.701 201.557H163.425V204.281H160.701V201.557ZM168.873 201.557H174.32V204.281H168.873V201.557ZM177.044 201.557H179.768V204.281H177.044V201.557ZM196.11 201.557H198.834V204.281H196.11V201.557ZM201.558 201.557H204.281V204.281H201.558V201.557ZM207.005 201.557H220.624V204.281H207.005V201.557ZM0.000321637 204.281H2.72407V207.005H0.000321637V204.281ZM16.3428 204.281H19.0665V207.005H16.3428V204.281ZM21.7903 204.281H24.514V207.005H21.7903V204.281ZM49.0278 204.281H51.7515V207.005H49.0278V204.281ZM59.9228 204.281H68.094V207.005H59.9228V204.281ZM76.2652 204.281H78.989V207.005H76.2652V204.281ZM87.1602 204.281H95.3315V207.005H87.1602V204.281ZM100.779 204.281H103.503V207.005H100.779V204.281ZM111.674 204.281H114.398V207.005H111.674V204.281ZM117.121 204.281H119.845V207.005H117.121V204.281ZM122.569 204.281H128.016V207.005H122.569V204.281ZM130.74 204.281H133.464V207.005H130.74V204.281ZM141.635 204.281H147.083V207.005H141.635V204.281ZM152.53 204.281H155.254V207.005H152.53V204.281ZM163.425 204.281H171.596V207.005H163.425V204.281ZM174.32 204.281H177.044V207.005H174.32V204.281ZM187.939 204.281H193.386V207.005H187.939V204.281ZM196.11 204.281H198.834V207.005H196.11V204.281ZM207.005 204.281H209.729V207.005H207.005V204.281ZM217.9 204.281H220.624V207.005H217.9V204.281ZM0.000321637 207.005H2.72407V209.729H0.000321637V207.005ZM5.44782 207.005H13.6191V209.729H5.44782V207.005ZM16.3428 207.005H19.0665V209.729H16.3428V207.005ZM27.2378 207.005H29.9615V209.729H27.2378V207.005ZM32.6853 207.005H40.8565V209.729H32.6853V207.005ZM46.304 207.005H49.0278V209.729H46.304V207.005ZM51.7515 207.005H54.4753V209.729H51.7515V207.005ZM57.199 207.005H59.9228V209.729H57.199V207.005ZM62.6465 207.005H81.7127V209.729H62.6465V207.005ZM87.1602 207.005H92.6077V209.729H87.1602V207.005ZM98.0552 207.005H100.779V209.729H98.0552V207.005ZM103.503 207.005H106.226V209.729H103.503V207.005ZM108.95 207.005H114.398V209.729H108.95V207.005ZM119.845 207.005H122.569V209.729H119.845V207.005ZM128.016 207.005H149.806V209.729H128.016V207.005ZM152.53 207.005H155.254V209.729H152.53V207.005ZM157.978 207.005H160.701V209.729H157.978V207.005ZM166.149 207.005H168.873V209.729H166.149V207.005ZM177.044 207.005H182.491V209.729H177.044V207.005ZM193.386 207.005H209.729V209.729H193.386V207.005ZM217.9 207.005H220.624V209.729H217.9V207.005ZM0.000321637 209.729H2.72407V212.452H0.000321637V209.729ZM5.44782 209.729H13.6191V212.452H5.44782V209.729ZM16.3428 209.729H19.0665V212.452H16.3428V209.729ZM24.514 209.729H29.9615V212.452H24.514V209.729ZM46.304 209.729H54.4753V212.452H46.304V209.729ZM62.6465 209.729H68.094V212.452H62.6465V209.729ZM70.8177 209.729H76.2652V212.452H70.8177V209.729ZM84.4365 209.729H92.6077V212.452H84.4365V209.729ZM98.0552 209.729H103.503V212.452H98.0552V209.729ZM106.226 209.729H108.95V212.452H106.226V209.729ZM111.674 209.729H114.398V212.452H111.674V209.729ZM128.016 209.729H130.74V212.452H128.016V209.729ZM133.464 209.729H136.188V212.452H133.464V209.729ZM141.635 209.729H147.083V212.452H141.635V209.729ZM163.425 209.729H171.596V212.452H163.425V209.729ZM174.32 209.729H177.044V212.452H174.32V209.729ZM179.768 209.729H182.491V212.452H179.768V209.729ZM204.281 209.729H207.005V212.452H204.281V209.729ZM212.453 209.729H215.176V212.452H212.453V209.729ZM0.000321637 212.452H2.72407V215.176H0.000321637V212.452ZM5.44782 212.452H13.6191V215.176H5.44782V212.452ZM16.3428 212.452H19.0665V215.176H16.3428V212.452ZM21.7903 212.452H27.2378V215.176H21.7903V212.452ZM35.409 212.452H38.1328V215.176H35.409V212.452ZM46.304 212.452H51.7515V215.176H46.304V212.452ZM62.6465 212.452H65.3702V215.176H62.6465V212.452ZM70.8177 212.452H76.2652V215.176H70.8177V212.452ZM84.4365 212.452H87.1602V215.176H84.4365V212.452ZM100.779 212.452H103.503V215.176H100.779V212.452ZM108.95 212.452H111.674V215.176H108.95V212.452ZM114.398 212.452H117.121V215.176H114.398V212.452ZM119.845 212.452H122.569V215.176H119.845V212.452ZM128.016 212.452H138.911V215.176H128.016V212.452ZM144.359 212.452H147.083V215.176H144.359V212.452ZM149.806 212.452H157.978V215.176H149.806V212.452ZM166.149 212.452H168.873V215.176H166.149V212.452ZM177.044 212.452H179.768V215.176H177.044V212.452ZM182.491 212.452H185.215V215.176H182.491V212.452ZM187.939 212.452H190.663V215.176H187.939V212.452ZM193.386 212.452H198.834V215.176H193.386V212.452ZM201.558 212.452H204.281V215.176H201.558V212.452ZM212.453 212.452H220.624V215.176H212.453V212.452ZM0.000321637 215.176H2.72407V217.9H0.000321637V215.176ZM16.3428 215.176H19.0665V217.9H16.3428V215.176ZM29.9615 215.176H32.6853V217.9H29.9615V215.176ZM35.409 215.176H40.8565V217.9H35.409V215.176ZM43.5803 215.176H49.0278V217.9H43.5803V215.176ZM54.4753 215.176H57.199V217.9H54.4753V215.176ZM62.6465 215.176H70.8177V217.9H62.6465V215.176ZM76.2652 215.176H84.4365V217.9H76.2652V215.176ZM100.779 215.176H103.503V217.9H100.779V215.176ZM111.674 215.176H119.845V217.9H111.674V215.176ZM122.569 215.176H128.016V217.9H122.569V215.176ZM138.911 215.176H149.806V217.9H138.911V215.176ZM157.978 215.176H160.701V217.9H157.978V215.176ZM163.425 215.176H166.149V217.9H163.425V215.176ZM168.873 215.176H171.596V217.9H168.873V215.176ZM174.32 215.176H177.044V217.9H174.32V215.176ZM185.215 215.176H190.663V217.9H185.215V215.176ZM207.005 215.176H212.453V217.9H207.005V215.176ZM0.000321637 217.9H19.0665V220.624H0.000321637V217.9ZM29.9615 217.9H32.6853V220.624H29.9615V217.9ZM35.409 217.9H46.304V220.624H35.409V217.9ZM54.4753 217.9H59.9228V220.624H54.4753V217.9ZM62.6465 217.9H65.3702V220.624H62.6465V217.9ZM70.8177 217.9H87.1602V220.624H70.8177V217.9ZM92.6077 217.9H95.3315V220.624H92.6077V217.9ZM98.0552 217.9H103.503V220.624H98.0552V217.9ZM106.226 217.9H111.674V220.624H106.226V217.9ZM114.398 217.9H125.293V220.624H114.398V217.9ZM128.016 217.9H133.464V220.624H128.016V217.9ZM136.188 217.9H147.083V220.624H136.188V217.9ZM155.254 217.9H160.701V220.624H155.254V217.9ZM168.873 217.9H171.596V220.624H168.873V217.9ZM174.32 217.9H179.768V220.624H174.32V217.9ZM185.215 217.9H187.939V220.624H185.215V217.9ZM196.11 217.9H201.558V220.624H196.11V217.9ZM217.9 217.9H220.624V220.624H217.9V217.9Z" fill="var(--fill-0, #20221E)" style="fill:#20221E;fill:color(display-p3 0.1255 0.1333 0.1176);fill-opacity:1;"/>
</g>
<defs>
<clipPath id="clip0_409_6996">
<rect width="220.623" height="220.623" fill="white" style="fill:white;fill-opacity:1;"/>
</clipPath>
</defs>
</svg>
