<svg preserveAspectRatio="none" width="100%" height="100%" overflow="visible" style="display: block;" viewBox="0 0 20 20" fill="none" xmlns="http://www.w3.org/2000/svg">
<g id="User">
<path id="Vector" d="M18.3111 16.407C17.24 14.527 15.5674 13.0622 13.5627 12.2484C14.5596 11.5007 15.296 10.4582 15.6676 9.26874C16.0392 8.07925 16.0271 6.803 15.633 5.62077C15.2389 4.43854 14.4829 3.41027 13.4719 2.68162C12.461 1.95297 11.2464 1.56087 10.0002 1.56087C8.75401 1.56087 7.53942 1.95297 6.52847 2.68162C5.51752 3.41027 4.76146 4.43854 4.36738 5.62077C3.9733 6.803 3.96119 8.07925 4.33276 9.26874C4.70433 10.4582 5.44075 11.5007 6.43769 12.2484C4.43294 13.0622 2.76038 14.527 1.68925 16.407C1.62288 16.5137 1.57864 16.6327 1.55917 16.7568C1.5397 16.881 1.54539 17.0078 1.57591 17.1297C1.60642 17.2516 1.66114 17.3662 1.7368 17.4665C1.81247 17.5668 1.90753 17.651 2.01635 17.7138C2.12517 17.7767 2.24552 17.817 2.37025 17.8325C2.49497 17.8479 2.62153 17.8381 2.74239 17.8036C2.86325 17.7692 2.97595 17.7108 3.07379 17.6319C3.17162 17.553 3.2526 17.4553 3.31191 17.3445C4.72753 14.8976 7.22753 13.4382 10.0002 13.4382C12.7728 13.4382 15.2728 14.8984 16.6885 17.3445C16.817 17.5511 17.0209 17.6997 17.2569 17.7588C17.493 17.8179 17.7428 17.7829 17.9536 17.6611C18.1643 17.5394 18.3194 17.3404 18.3861 17.1064C18.4529 16.8724 18.426 16.6215 18.3111 16.407ZM5.93769 7.50072C5.93769 6.69723 6.17595 5.91179 6.62234 5.24371C7.06874 4.57564 7.70321 4.05494 8.44554 3.74746C9.18786 3.43997 10.0047 3.35952 10.7927 3.51628C11.5808 3.67303 12.3047 4.05994 12.8728 4.62809C13.441 5.19625 13.8279 5.92011 13.9846 6.70816C14.1414 7.49621 14.0609 8.31304 13.7534 9.05537C13.446 9.79769 12.9253 10.4322 12.2572 10.8786C11.5891 11.325 10.8037 11.5632 10.0002 11.5632C8.92313 11.562 7.89053 11.1336 7.12894 10.372C6.36734 9.61037 5.93893 8.57778 5.93769 7.50072Z" fill="var(--fill-0, #A4A7AE)" style="fill:#A4A7AE;fill:color(display-p3 0.6431 0.6549 0.6824);fill-opacity:1;"/>
</g>
</svg>
